<svg version="1.2" baseProfile="tiny-ps" xmlns="http://www.w3.org/2000/svg" viewBox="0 0 606 78" width="606" height="78">
	<title>tailwind-css-logo-svg</title>
	<style>
		tspan { white-space:pre }
		.s0 { fill: #000000 } 
		.s1 { fill: #06b6d4 } 
	</style>
	<path id="Layer" fill-rule="evenodd" class="s0" d="m189 33.3h-10.8v20.9c0 5.6 3.7 5.5 10.8 5.2v8.5c-14.5 1.7-20.2-2.3-20.2-13.6v-20.9h-8v-9.1h8v-11.7l9.4-2.8v14.5h10.8v9zm50.6-9.1v43.6h-9.4v-6.3c-3.3 4.6-8.5 7.4-15.3 7.4c-11.9 0-21.7-10-21.7-22.9c0-13 9.9-22.9 21.7-22.9c6.8 0 12 2.8 15.3 7.3v-6.2h9.4zm-9.4 21.8c0-8.1-5.9-14-13.8-14c-7.8 0-13.8 5.8-13.8 14c0 8.2 6 14 13.8 14c7.9 0 13.8-5.8 13.8-14zm19.1-34.3c0-3.3 2.7-6 6-6c3.3 0 6 2.7 6 6c0.1 3.2-2.7 6-6 6c-3.3 0-6-2.8-6-6zm1.3 56.1v-43.6h9.4v43.6h-9.4zm20.3 0v-63.7h9.4v63.7h-9.4zm70.6-43.6h9.9l-13.7 43.6h-9.2l-9.1-29.4l-9.2 29.4h-9.2l-13.7-43.6h9.9l8.5 30.1l9.2-30.1h9l9.1 30.1l8.5-30.1zm15.7-12.5c0-3.3 2.7-6 6-6c3.3 0 6 2.7 6 6c0 3.2-2.7 6-6 6c-3.3 0-6-2.8-6-6zm1.2 56.1v-43.6h9.4v43.6h-9.4zm60.1-26.7v26.8h-9.4v-25.9c0-6.6-3.8-10.1-9.8-10.1c-6.2 0-11.1 3.7-11.1 12.6v23.4h-9.4v-43.6h9.4v5.6c2.9-4.6 7.6-6.8 13.5-6.8c9.8 0 16.8 6.6 16.8 18zm44.6-34.3h9.4v61.1h-9.4v-6.3c-3.3 4.6-8.5 7.4-15.3 7.4c-11.9 0-21.7-10-21.7-22.9c0-13 9.9-22.9 21.7-22.9c6.8 0 12 2.8 15.3 7.3v-23.7zm0.1 39.2c0-8.1-5.9-14-13.8-14c-7.8 0-13.8 5.8-13.8 14c0 8.2 5.9 14 13.8 14c7.9 0 13.8-5.8 13.8-14zm17.9 0.1c0-13 9.9-22.9 23-22.9c8.6 0 16 4.4 19.5 11.3l-8.1 4.7c-1.9-4.1-6.2-6.7-11.4-6.7c-7.7 0-13.5 5.8-13.5 13.7c0 7.9 5.8 13.7 13.5 13.7c5.2 0 9.5-2.7 11.6-6.7l8.1 4.6c-3.7 6.7-11.1 11.2-19.7 11.2c-13.2 0-23-10-23-22.9zm81.7 9.5c0 8.7-7.6 13.4-17 13.4c-8.7 0-15-3.9-17.8-10.2l8.1-4.7c1.4 3.9 4.9 6.3 9.7 6.3c4.2 0 7.4-1.4 7.4-4.9c0-7.8-23.5-3.4-23.5-19c0-8.2 7.1-13.3 16-13.3c7.2 0 13.1 3.3 16.1 9.1l-7.9 4.4c-1.6-3.4-4.6-5-8.2-5c-3.4-0.1-6.4 1.4-6.4 4.6c0 7.9 23.5 3.1 23.5 19.3zm40.2 0c0 8.7-7.6 13.4-17 13.4c-8.7 0-15-3.9-17.8-10.2l8.1-4.7c1.4 3.9 4.9 6.3 9.7 6.3c4.2 0 7.4-1.4 7.4-4.9c0-7.8-23.5-3.4-23.5-19c0-8.2 7.1-13.3 16-13.3c7.2 0 13.1 3.3 16.1 9.1l-7.9 4.4c-1.6-3.4-4.6-5-8.2-5c-3.4-0.1-6.4 1.4-6.4 4.6c0 7.9 23.5 3.1 23.5 19.3z" />
	<path id="Layer" fill-rule="evenodd" class="s1" d="m65 2c15.4 0 22.4 7.1 28.5 13.3c3.7 3.8 7.1 7.2 11.8 8.4c8.3 2.1 15.5-1 21.7-9.3c-4.1 16.5-14.5 24.8-31 24.8c-15.4 0-22.4-7.1-28.5-13.3c-3.7-3.8-7.1-7.2-11.8-8.4c-8.3-2.1-15.5 1-21.7 9.3c4.1-16.5 14.5-24.8 31-24.8zm-31 37.1c15.4 0 22.4 7.2 28.5 13.3c3.7 3.8 7.1 7.2 11.8 8.4c8.3 2.1 15.5-1 21.7-9.3c-4.1 16.5-14.5 24.8-31 24.8c-15.4 0-22.4-7.1-28.5-13.3c-3.7-3.8-7.1-7.2-11.8-8.4c-8.3-2.1-15.5 1-21.7 9.3c4.1-16.5 14.5-24.8 31-24.8z" />
</svg>