<?xml version="1.0" standalone="no"?>
<!DOCTYPE svg PUBLIC "-//W3C//DTD SVG 20010904//EN"
 "http://www.w3.org/TR/2001/REC-SVG-20010904/DTD/svg10.dtd">
<svg version="1.0" xmlns="http://www.w3.org/2000/svg"
 width="1032.000000pt" height="1032.000000pt" viewBox="0 0 1032.000000 1032.000000"
 preserveAspectRatio="xMidYMid meet">
<metadata>
Created by potrace 1.14, written by Peter Selinger 2001-2017
</metadata>
<g transform="translate(0.000000,1032.000000) scale(0.100000,-0.100000)"
fill="#000000" stroke="none">
<path d="M3620 7681 l-1319 -2639 40 -4 c22 -2 43 0 45 4 3 5 9 6 15 3 5 -3
73 -6 151 -5 79 1 152 1 163 1 16 0 286 0 320 0 22 0 301 0 320 0 16 0 286 0
320 0 6 0 75 0 155 0 80 0 152 0 160 0 8 0 74 0 145 0 72 0 137 0 145 0 35 0
86 -4 92 -8 4 -2 4 -12 -1 -21 -15 -27 -45 -99 -95 -222 -26 -63 -51 -124 -56
-135 -5 -11 -26 -60 -46 -110 -20 -49 -44 -108 -53 -130 -10 -22 -26 -60 -36
-85 -10 -25 -28 -69 -41 -98 -13 -29 -24 -55 -24 -57 0 -4 -219 -535 -239
-580 -5 -11 -32 -76 -61 -145 -28 -69 -56 -136 -62 -150 -6 -14 -13 -29 -14
-35 -7 -25 -180 -438 -200 -477 -8 -14 -14 -30 -14 -36 0 -5 -12 -36 -27 -68
-15 -33 -28 -64 -29 -69 -1 -6 -11 -32 -23 -57 -11 -26 -21 -49 -21 -52 0 -3
-13 -34 -29 -68 -15 -35 -34 -81 -41 -103 -7 -22 -16 -42 -19 -45 -3 -3 -30
-66 -60 -140 -30 -74 -65 -160 -79 -190 -14 -30 -25 -61 -25 -67 0 -7 -4 -13
-9 -13 -4 0 -8 -7 -8 -16 0 -8 -5 -25 -12 -37 -7 -12 -13 -26 -14 -32 -1 -5
-32 -80 -68 -167 -36 -86 -66 -161 -66 -167 0 -6 -4 -11 -8 -11 -5 0 -9 -6 -9
-12 -1 -11 -94 -242 -123 -303 -5 -11 -19 -45 -31 -75 -36 -92 -50 -124 -59
-142 -6 -10 -10 -25 -10 -33 0 -8 -4 -15 -10 -15 -5 0 -10 -7 -10 -16 0 -8 -9
-36 -21 -62 -11 -26 -24 -56 -29 -67 -5 -11 -52 -126 -105 -255 -113 -275
-115 -280 -126 -302 -19 -38 -7 -39 22 -2 61 78 94 118 109 133 9 9 49 56 90
106 41 49 87 103 101 120 15 16 57 66 94 110 37 44 85 102 108 129 23 27 61
72 85 100 23 28 48 58 55 66 8 8 62 74 122 145 60 72 111 132 114 135 4 3 40
46 81 95 41 50 77 92 80 95 3 3 39 46 80 95 85 101 108 129 165 195 22 25 56
66 75 89 36 45 67 82 110 131 14 16 36 43 50 60 14 18 37 45 53 60 15 16 27
33 27 38 0 6 4 12 9 14 9 3 70 74 206 238 20 25 43 52 51 60 42 47 72 83 94
111 14 18 32 40 40 48 9 9 36 41 60 71 25 30 47 57 50 60 3 3 30 34 60 70 30
36 57 67 60 70 3 3 35 41 70 85 36 43 72 86 80 95 8 9 33 38 55 65 45 55 157
187 165 195 6 6 101 118 123 145 31 39 132 160 152 182 23 25 28 31 98 116 28
34 53 64 56 67 4 3 21 23 39 45 19 22 51 60 72 85 21 25 103 122 181 215 79
94 148 175 154 182 5 6 20 24 32 40 12 16 36 45 54 64 37 41 51 58 109 128 25
30 52 62 60 71 8 9 31 36 50 59 19 24 43 53 54 65 32 37 209 247 271 321 22
27 45 53 50 59 10 11 213 253 228 271 4 6 21 26 38 45 17 19 45 52 62 74 18
21 41 48 52 60 11 11 36 41 55 66 19 24 42 52 50 60 8 9 35 40 60 70 25 29 57
67 72 84 14 17 68 81 118 141 115 136 162 193 190 225 12 14 30 35 41 48 10
12 19 27 19 34 0 6 3 9 6 5 3 -3 28 22 55 56 28 34 67 82 87 106 35 42 46 54
95 111 171 199 184 218 144 211 -14 -2 -50 -3 -307 -2 -140 0 -262 0 -270 0
-8 0 -64 0 -125 1 -60 1 -114 0 -120 -1 -5 -1 -14 -1 -19 0 -7 1 -175 1 -216
0 -8 0 -188 0 -400 0 -212 0 -392 0 -400 0 -8 0 -64 0 -125 1 -60 1 -114 0
-120 -1 -5 -1 -14 -1 -19 0 -4 1 -51 1 -105 1 -132 -1 -128 -1 -199 0 l-63 0
33 48 c18 26 38 55 43 64 15 24 133 201 142 213 5 6 23 33 40 60 18 28 37 55
42 61 5 6 40 58 77 115 38 57 73 108 77 114 26 34 307 459 307 466 0 4 3 9 8
11 4 2 34 44 66 93 33 50 64 95 68 100 5 6 32 46 61 90 28 44 55 82 60 83 4 2
7 9 7 16 0 7 8 21 18 32 24 28 62 82 62 90 0 3 12 23 28 43 15 20 32 44 37 53
29 49 351 523 357 526 5 2 8 8 8 13 0 5 22 41 50 81 27 40 54 80 60 88 28 43
156 234 313 468 97 145 177 267 177 272 0 5 4 10 8 12 4 2 39 50 77 108 39 58
73 107 76 110 3 3 14 20 23 38 9 17 22 32 28 32 9 0 9 3 1 11 -7 7 -121 12
-324 14 -286 4 -570 8 -1434 20 -165 3 -474 7 -688 10 l-387 5 -1320 -2639z"/>
</g>
</svg>
