<svg xmlns="http://www.w3.org/2000/svg" width="262.961" height="560.443" viewBox="0 0 262.961 560.443"><g transform="translate(-19.9 -19.128)"><g transform="translate(19.9 19.128)"><path d="M74.491,558.411c-8.8-3.857-14.826-10.848-21.093-17.839a11.179,11.179,0,0,1-2.893-6.268c-3.013-2.29-1.446-4.942-.844-7.594a5.325,5.325,0,0,1,.723-1.929c5.786-6.75,5.786-14.223,3.857-22.66-4.219-18.562-4.821-37.486-3.857-56.53.844-16.633,1.205-33.146,3.978-49.539,1.446-8.437,3.736-16.754,5.062-25.312,3.857-11.33,1.808-23.022,2.411-34.593,0-.6.121-1.205.121-1.808,1.808-5.665,4.942-11.089,2.531-17.357a9.3,9.3,0,0,1-.241-1.808,34.465,34.465,0,0,1,1.205-11.089,10.427,10.427,0,0,1,5.424-7.232c6.027-2.652,5.183-8.076,5.424-13.138.121-.6.121-1.205.241-1.808,1.446-7.955.241-16.151,1.929-24.107.121-.964.121-1.808.241-2.772.964-2.411,3.616-3.737,4.7-6.147,2.29-3.254,5.665-5.544,7.594-9.04,6.268-4.58,10.727-10.848,15.428-16.875,2.049-2.531,2.17-4.7.121-7.955-5.665-8.678-14.223-12.415-23.383-15.187-6.388-1.929-9.884-6.268-13.018-11.571-2.652-4.339.362-8.076.964-11.933a12.642,12.642,0,0,0-.723-8.919,6.251,6.251,0,0,1-.362-3.616,4.01,4.01,0,0,1,1.326-2.531c2.652-1.446,4.219.482,5.906,1.929,1.085,1.205,1.446,3.375,3.736,3.375-.6-2.29-2.772-2.772-4.1-4.219-3.616-1.928-3.375-5.3-3.375-8.678v-6.991a7.268,7.268,0,0,1,1.446-4.7c1.446-1.446,2.652-2.893,4.942-3.013a7.937,7.937,0,0,1,4.1,2.411,11.112,11.112,0,0,1,1.808,6.147,10.826,10.826,0,0,1-.844,3.254,4.837,4.837,0,0,0-.362,1.808c3.978,1.687,6.268,3.978,6.629,8.8.482,6.027,3.978,11.451,7.594,16.151,4.1,5.183,9.763,2.29,14.584,1.085,7.835-1.808,12.053-.121,14.946,7.352,2.29,6.147,1.205,8.2-5.3,9.522-3.857,3.254-3.857,3.254-7.594,3.013a6.01,6.01,0,0,1,2.893.362,2.266,2.266,0,0,0,2.049-.964c.844-.964,1.567-2.17,3.013-2.531,5.3,0,7.232,1.808,7.232,7.594,0,2.411-.6,5.062,2.17,6.268s4.942-.844,6.87-2.411c12.9-10.727,25.312-22.178,39.294-31.58,6.87-4.58,9.04-10.125,6.75-17.839a85.42,85.42,0,0,1-2.893-13.379c-.723-5.424-4.1-6.87-9.16-4.58-3.978,1.808-7.714,3.737-12.053,4.821-2.531-.121-3.5-2.049-4.46-3.978-2.531-6.147-4.1-12.535-9.522-17.477-2.893-2.652-2.049-7.955-2.772-12.053a50.739,50.739,0,0,0-1.085-5.906c-1.567-4.942-3.857-6.027-8.558-4.339-6.268,2.17-7.955.964-8.076-5.424,0-2.411,1.326-5.906-3.013-6.268a3.06,3.06,0,0,0-.6,2.652c0,3.375-1.326,5.545-5.183,5.424-3.736-.964-3.013-5.3-5.3-7.232-6.388,3.616-6.629,5.062-1.687,9.522,3.013,2.772,6.388,4.821,9.4,7.594,4.1,3.857,3.254,7.594-2.29,9.763,2.049,1.567,4.58,2.17,6.388,3.857,2.893,2.411,3.375,5.665,1.326,8.558s-4.58,2.049-7.352.362c-4.942-3.254-5.183-3.134-6.75,2.411a20.022,20.022,0,0,1-3.134,5.665c-3.254,4.821-8.678,7.835-10.607,13.62a3.547,3.547,0,0,1-4.46,2.17c-2.049-.482-2.893-2.049-3.134-3.978-.6-4.58,0-8.919,2.772-12.535s5.544-7.835,5.544-13.018c0-2.17.482-4.7,3.857-3.978a3.39,3.39,0,0,1,.6,2.652,2.972,2.972,0,0,0-.482-2.29c-2.411-2.17-3.134-5.545-4.942-8.2-1.567-2.17-2.893-4.339-5.786-4.821-4.821-3.254-4.339-8.2-4.46-13.018,2.893-6.027,7.594-11.089,9.522-17.718A44.162,44.162,0,0,1,99.2,71.1a5.238,5.238,0,0,0,.844-3.5c-.362-1.446-2.17-1.808-2.772-3.134a3.56,3.56,0,0,1-.241-1.567c.964-2.531,3.737-4.7,1.085-7.955-.964-1.205,0-2.893,1.205-4.219,3.013-3.375,6.147-6.629,9.16-10.125,4.339-4.219,7.352-10.245,14.343-11.089.723-.121.12.362.482-.362,4.46-8.076,12.053-6.509,19.165-6.268,3.013.121,5.906-.723,8.919-1.085a4.752,4.752,0,0,1,1.687.6,56.819,56.819,0,0,0,17.357,2.772,111.96,111.96,0,0,1,12.776,1.446c4.46,2.17,8.919,4.1,13.982,4.46a15.062,15.062,0,0,1,9.643,3.978c6.268,4.821,12.9,9.16,18.562,14.7,2.29,3.254,8.678,3.616,7.111,9.643a10.875,10.875,0,0,0-.362,5.544,23.978,23.978,0,0,0,5.665,12.415,76.339,76.339,0,0,1,6.75,10.727c3.978,7.835,5.906,15.79,4.1,24.83-2.652,13.62-5.665,27-10.366,40.017-.241.844-.362,1.808-.6,2.652-.121.6-.241,1.205-.362,1.687-1.567,3.013-4.1,5.424-5.062,8.8a10.058,10.058,0,0,0-.964,1.446c-6.991,9.522-8.076,20.491-8.2,31.821,0,2.411.362,5.062-2.652,6.027s-3.616-1.808-5.183-3.134c-2.531-2.893-5.786-4.942-8.8-7.232-2.049-1.567-4.7-1.808-6.509.362-2.049,2.531-.121,4.46,1.928,5.906,2.531,1.929,5.3,3.5,7.111,6.268,1.326,3.616,4.46,5.906,6.509,9.04,2.531,7.111,7.232,12.9,11.933,18.683,2.652,3.978,4.821,8.2,7.352,12.174,1.929,4.1,5.183,7.353,7.232,11.451.482,1.687,1.085,3.375,1.687,5.062a253.306,253.306,0,0,1,8.317,26.156c7.835,20.37,7.955,41.584,6.87,62.918-.362,6.75-.723,13.5,2.411,19.767.6,2.411.6,4.7-.844,6.75-7.232,4.821-15.79,6.509-23.624,9.884-15.187,6.388-30.013,13.259-44.718,20.611-3.737,1.808-3.5,4.339-2.049,7.473,4.1,8.8,7.352,18.08,13.5,25.915a19.892,19.892,0,0,1,3.857,12.9v7.352c.121,6.991-2.29,13.018-5.062,19.285a50.213,50.213,0,0,1-8.437,13.741c-3.857,4.339-2.531,11.33,1.567,16.031,2.411,2.772,2.893,6.027.723,8.8s-5.544,2.772-7.955,0c.964,3.013,5.906.6,6.87,4.339.844,3.616-2.772,5.183-3.375,7.955a7.886,7.886,0,0,0,.362,4.7c.121-.121.482.362.482.241,4.942-1.567,9.281-4.339,13.62-6.87,3.134-1.808,6.388-3.736,9.763-5.424,1.687-1.326,3.737-1.808,5.545-2.893,8.919-4.339,18.321-7.835,27.481-11.812,2.17-.964,4.58-1.567,6.87,0a5.549,5.549,0,0,1,1.567,3.978c-2.531,11.089-.844,22.3-1.205,33.508-.241,7.473,1.808,14.826,1.205,22.3-.241,2.411-.121,5.062-3.013,6.147H109.928c-2.049,0-5.062,1.326-6.027-.844-.964-1.928,1.929-3.737,2.531-5.786.121-.6.844-.964.964-1.446.964-2.652,5.906-4.339,2.772-7.955-2.411-2.772-12.174-2.411-14.464-.121s-3.254,4.219.362,6.147a23.346,23.346,0,0,1,3.254,2.531,4.164,4.164,0,0,1,1.326,5.906c-.241.362-.482.6-.723.964a3.5,3.5,0,0,1-5.062.121,5.354,5.354,0,0,1-.964-1.326c-.723-1.687-2.29-1.446-3.616-1.446a23.9,23.9,0,0,1-10.366-2.531,10.1,10.1,0,0,0-13.259,3.978c-2.17,3.5-5.665,2.411-7.955,1.326s-2.049-3.978-.482-6.268c.844-1.205,1.567-2.29,2.411-3.5.362-1.205,3.134-2.652-.362-3.616-1.687-.482-2.049-1.446-.964-2.893,3.737-1.326,7.232-6.509,11.451-.121,1.085,1.567,2.772-1.205,4.219-2.049a.537.537,0,0,1,.723-.362h.121l.241-.241C75.214,559.014,74.853,558.773,74.491,558.411Z" transform="translate(-13.984 -18.579)" fill="#202020"/><path d="M157.548,24.759c-4.58,4.46-10.245,1.567-15.308,1.567-6.388,0-6.991-.241-8.2,6.75-.121.482-.723,1.205-.964,1.085-8.2-2.17-11.571,3.857-15.549,8.919a14.1,14.1,0,0,1-7.232,5.665c-5.424,2.049-6.147,3.857-4.339,9.643a3.991,3.991,0,0,1-1.085,4.219,40.191,40.191,0,0,0-1.567,13.62c-.844,6.87-5.424,11.933-8.2,17.839-1.446,3.254-.121,6.388.844,9.281,1.446,4.821,0,8.076-3.375,11.33-3.134,3.134-7.232,4.942-10.366,8.076-7.352,5.062-7.714,7.352-2.17,14.826.964,1.326,2.17,2.772,1.326,4.339-3.375,6.388-2.772,13.62-4.1,20.37-1.446,7.594-.844,16.031-.482,23.986.241,6.87,6.268,11.33,12.9,13.62,8.8,3.013,16.513,7.232,22.419,14.826,2.652,3.375,2.652,5.906.482,9.16-4.58,6.629-10.486,12.174-15.79,18.2a49.039,49.039,0,0,0-10.366,12.415c-3.013,4.7-3.134,10.727-3.254,16.272-.121,6.87-.844,13.62-1.326,20.37-.121,2.411-.844,4.46-2.893,5.665-7.955,4.46-9.281,11.812-8.317,19.767a33.644,33.644,0,0,1-1.929,16.513c-2.17,5.665-1.929,11.571-1.205,17.236,1.326,9.643-1.205,18.683-3.254,27.722-4.821,21.334-8.076,42.789-7.835,64.726.121,10.727-.964,21.455-.121,32.3a175.867,175.867,0,0,0,4.1,28.446,44.446,44.446,0,0,1,.723,14.946c-8.558,12.053-12.415,26.156-17,39.776-3.254,9.643-7.835,12.776-15.308,18.562-1.085,1.929.241,4.1-5.544.6-3.254-2.29-3.254-2.29-3.375-2.893.121-.121.241-.362.362-.482,15.549-11.812,18.8-30.133,25.071-46.887.964-2.652,1.567-5.786,3.375-7.714,4.7-4.942,4.219-10.245,3.013-16.272-3.857-18.562-4.1-37.245-3.375-56.168.723-17.477.844-34.834,3.978-52.07,1.687-9.04,3.013-18.2,5.3-27.12a80.031,80.031,0,0,0,1.929-22.057,60.633,60.633,0,0,1,2.411-20.249c.723-2.29,1.567-4.7.6-7.111-3.616-9.04,0-17.839,5.3-23.5,6.87-7.353,6.509-15.428,7.352-23.745.362-3.134,0-6.509.482-9.643a35.561,35.561,0,0,1,10.727-21.7c5.183-4.942,9.4-10.968,14.223-16.392,2.049-2.29,1.687-4.1-.241-6.268a27.57,27.57,0,0,0-11.451-7.352c-8.558-2.893-16.031-7.353-19.406-16.633-.482-1.326-1.326-2.652-1.205-3.978.844-11.692-3.375-23.5,1.326-35.075,1.808-4.46,1.085-9.4-.723-14.1-4.46-11.933-2.17-18.8,8.317-26.156,5.786-3.978,11.089-8.2,8.2-16.634-.6-1.687,0-4.1.844-5.786,5.183-11.571,5.062-23.865,6.027-36.16.6-7.473,3.013-14.223,11.933-15.91a6.094,6.094,0,0,0,4.339-3.857c1.687-4.1,5.665-6.027,8.558-9.04,7.232-7.232,16.272-7.473,25.071-6.991a322.993,322.993,0,0,0,32.423-.241c13.138-.723,25.432,3.254,37.968,5.424,4.821.844,7.352,5.3,11.089,7.955,4.46,3.134,8.919,6.147,14.343,7.232s8.437,5.062,9.16,10.607a24.775,24.775,0,0,1,.241,4.219c-.964,10.125,2.29,18.683,8.678,26.517,7.714,9.643,8.678,21.334,6.629,33.026-.964,5.665-1.687,11.451-2.531,17.116-1.085,6.991-4.1,13.741-6.75,20.491-6.87,17.357-13.62,34.713-14.464,53.637a20.571,20.571,0,0,1-3.254,10.245c-2.652,3.857-1.929,7.111.844,10.366a139.79,139.79,0,0,1,21.214,36.762c4.339,10.968,7.232,22.54,10.607,33.87,1.326,4.339-2.411,5.906-4.821,8.2-4.219-4.1-3.978-10.125-6.147-15.067-1.687-3.737-2.29-7.955-3.736-11.812-4.219-17.477-14.223-31.941-24.348-46.284a59.174,59.174,0,0,1-6.147-10.245c-.844-3.737-3.134-7.594,1.326-10.727,1.085-.6,2.17-1.326,3.254-2.049,3.857-2.652,3.375-6.87,3.857-10.727,1.567-13.017,3.737-25.914,10.486-37.606a12.858,12.858,0,0,0,1.687-6.268c6.388-14.343,8.8-29.772,11.571-44.959,1.326-7.232-1.808-14.1-5.3-20.491a6.49,6.49,0,0,1-1.085-1.446c-2.049-6.147-8.2-9.763-9.884-16.031-.362-3.134-.723-6.388.241-9.281,1.567-4.942-.121-8.437-4.1-11.21l-1.567-.844c-7.714-3.134-13.62-9.16-20.491-13.62-.964-.6-1.808-1.929-2.893-2.049-10.727-1.808-20.129-8.558-31.58-8.2A156.505,156.505,0,0,1,157.548,24.759Z" transform="translate(-19.9 -19.128)" fill="#fefefe"/><path d="M215.411,233.114c3.134,9.16,6.629,18.2,8.558,27.722,4.219,16.272,4.1,32.905,2.772,49.539-.362,4.1-.723,7.955.362,11.933,4.821,18.2,7.111,36.883,10.607,55.324a265.808,265.808,0,0,1,5.3,60.266c-.121,3.5-.362,6.75-2.411,9.763a1.179,1.179,0,0,1-1.687-.241h0c-.844-1.687-.241-3.375-.241-4.942.241-9.281.121-18.562.121-27.843a392.285,392.285,0,0,0-11.812-69.909c-.844-4.58.6-9.161-.964-13.741-3.5-6.268-2.772-13.138-2.772-19.888.121-9.643,0-19.165.241-28.807.241-12.415-3.978-23.986-7.111-35.678-.844-4.339-3.013-8.437-2.772-13.017a1.148,1.148,0,0,1,1.567-.362C215.291,232.993,215.291,232.993,215.411,233.114Z" transform="translate(19.868 24.792)" fill="#d6d6d6"/><path d="M238.5,411.046H239.7c-3.375,7.473-8.678,13.741-12.294,21.093-2.772,5.544-4.7,10.727-4.821,17.116-.241,14.464.964,28.807,1.326,43.271.121,3.375.241,5.424-4.58,5.3,1.446-5.906.844-10.607.241-16.513-1.205-11.33,0-22.781-.964-34.111a22.211,22.211,0,0,1,1.808-10.486c1.205-4.942,3.857-9.281,6.388-13.62,2.411-3.616,5.424-6.991,7.955-10.607C235.845,411.528,236.689,410.2,238.5,411.046Z" transform="translate(20.889 61.287)" fill="#dfdfdf"/><path d="M51.874,457.221c-1.205,1.567-.964,3.254-.6,5.062.482,2.411,1.446,5.3-2.411,6.268-.6.121-1.205,1.085-1.567,1.808-1.808,3.616.844,9.161-.964,10.607-2.652,2.17-5.906,2.893-5.3,7.353.241,2.049-1.085,2.772-3.013,2.772H30.178c-1.326-2.772.482-4.942,2.17-6.268,9.281-7.111,9.884-18.441,14.1-28.084a10.608,10.608,0,0,1,.6-1.808,10.16,10.16,0,0,1,.723-1.687c.844-1.446,1.567-3.857,3.737-3.013,1.808.6.723,2.772.964,4.339A3.74,3.74,0,0,1,51.874,457.221Z" transform="translate(-17.884 69.352)" fill="#222"/><path d="M48.981,459.332l-.121,1.205c-2.411,5.183-5.3,10.245-6.147,16.151-.6,4.339-4.219,7.111-7.232,10-2.411,2.411-4.339,5.3-6.87,7.473H26.2a11.343,11.343,0,0,1,1.446-2.652c14.464-11.933,15.91-30.374,23.263-45.8,2.049-4.339,3.5-8.919,7.714-11.812l.6.482c.844,3.013-3.254,4.1-2.652,6.87a1.791,1.791,0,0,1-.241,1.085C53.079,447.882,50.307,453.306,48.981,459.332Z" transform="translate(-18.606 66.035)" fill="#d3d3d3"/><path d="M28.1,489.729a81.421,81.421,0,0,0,18.562-32.182c.241-.6,1.205-.964,1.808-1.446-3.857,9.643-4.58,20.732-13.741,27.964-1.808,1.446-2.772,3.857-4.1,5.785Z" transform="translate(-18.216 70.593)" fill="silver"/><path d="M45.1,457.875c.121-6.629,2.049-12.535,7.232-16.875l-1.085,7.111c-3.616,3.013.482,7.835-2.531,10.969v-5.786C46.064,454.138,46.305,456.669,45.1,457.875Z" transform="translate(-14.726 67.493)" fill="silver"/><path d="M57.2,470c0,3.134,1.929,2.893,4.1,2.411,1.808-.362,4.58-2.049,4.942.6.362,2.893-3.013,1.205-4.58,2.049a25.881,25.881,0,0,0-3.134,1.687C59.493,474.219,55.033,472.772,57.2,470Z" transform="translate(-12.365 73.447)" fill="#fafafa"/><path d="M76.106,470.616c-2.17-.362-1.929,2.893-3.978,2.893-2.049-1.205.362-4.1-1.929-5.062V467l6.991,1.446C78.035,469.772,76.588,470.013,76.106,470.616Z" transform="translate(-9.572 72.831)" fill="#fafafa"/><path d="M193.992,468.5c-2.411,1.326-4.46,3.254-6.75,4.7-6.75,4.58-13.62,9.4-21.937,10.848a1.543,1.543,0,0,1-.362-2.17c0-.121.121-.121.241-.241.723-1.205-1.326-2.411.362-3.737,2.17-1.567,1.687-3.013-.844-3.616-1.326-.362-3.134.12-2.893-1.929.121-1.567,2.049-1.687,3.254-2.29,2.049-1.085,5.544,0,5.665-4.58-8.076,3.978-5.3-3.978-8.2-6.388,3.857-1.808,6.147,4.219,9.16,1.085,1.085-1.085.6-3.616.964-5.544-5.906,1.205-5.906,1.205-6.147-5.062-.121-4.821.121-9.763,1.928-14.343.844-2.17.844-5.906,5.183-5.183.482.121,1.929-1.567,1.808-1.929-2.652-6.87,5.906-9.763,5.665-16.151-.121-2.411,1.326-5.544,1.326-8.558a8.711,8.711,0,0,1,0-7.353c1.326-5.906-2.17-10.848-5.424-14.343-6.388-6.991-7.594-15.91-11.812-23.624-.964-1.687-.844-3.978-3.857-2.893-.964.362-2.652.6-3.013-.844-.482-1.688,1.205-2.411,2.29-3.013,6.509-3.375,13.138-6.75,19.767-10a440.221,440.221,0,0,1,47.851-20.611,62.318,62.318,0,0,1,8.2-1.929c4.46,1.567,1.205,5.786,2.772,8.317a494.659,494.659,0,0,1,9.643,51.708c1.929,14.825,1.567,29.41,2.049,44.115.121,3.134-.241,6.027-2.772,8.2a17.173,17.173,0,0,1-3.013,3.616,25.169,25.169,0,0,0-2.411,2.652c-3.616,5.183-5.183,12.053-11.33,15.428-10.727,4.58-20.852,10.607-32.423,13.259C197.488,467.055,194.956,466.211,193.992,468.5Z" transform="translate(8.503 42.402)" fill="#fefefe"/><path d="M91.448,95.669c5.665.844,10.245,8.8,8.317,14.223h0a4.322,4.322,0,0,0-.964,3.978c.844,5.786-1.326,10.245-5.424,14.343-3.857,3.857-3.737,8.8-2.893,13.861.6-.121,1.085-.241,1.687-.362.362-7.352,7.111-10.245,10.848-15.308,2.411-3.254,4.58-6.268,3.375-10.727-.6-2.29-.121-3.375,3.254-2.652,4.46.964,6.991,4.339,10.727,6.147,1.446-4.46,1.446-4.339-4.942-9.04-3.134-2.29-6.509-4.46-8.678-8.076,2.893-1.929,4.58.6,6.629,1.326,1.446.482,3.134,2.29,4.219.723,1.326-1.808-.482-3.5-1.808-4.58-4.46-3.736-9.04-7.232-13.62-10.727-5.544-4.219-5.665-4.58.362-7.835,3.736-2.049,5.665-4.58,5.544-8.919,0-1.446.362-4.58,2.411-.844-.241.362-.482.964-.362,1.085,5.062,3.375,2.652,8.919,4.1,13.379,4.58.482,2.772-2.411,2.29-4.58-.723-3.254-1.205-6.388.362-9.522,10,4.942,10,4.942,10,19.285,3.978-2.772,7.352-7.111,12.535-3.254,2.049,1.567,4.1,2.652,4.1,5.906.121,3.737,1.205,7.473,1.808,11.21.723,5.062,0,10.486,7.714,11.451,2.17.241,6.268,3.616,2.049,7.835-1.446,1.446-.844,3.737.362,5.545,1.326,3.857-.6,4.821-4.1,5.062a8.116,8.116,0,0,0-7.594,8.317c.121,1.446.121,3.013,1.687,3.5,1.687.6,2.411-.964,3.134-2.049a31.127,31.127,0,0,0,2.652-5.3c1.205-3.978,3.978-5.786,7.955-5.786,1.808-1.085,1.085-5.183,3.013-4.7,5.665,1.446,9.16-4.821,14.584-3.375,5.665,1.446,5.545,6.268,6.147,10.486A131.63,131.63,0,0,0,186.91,152.2c.964,3.5.844,6.75-1.929,9.763-5.544,5.906-12.535,10-18.8,14.946-10.968,8.678-21.7,17.718-32.3,26.758-3.375,2.893-5.906,3.375-7.714-1.205-.6-1.326-1.687-1.446-2.652-2.049-2.652-1.687-3.375-3.5-.482-6.027,2.652-2.17,1.085-5.906-2.531-6.75-1.326.6-2.652.723-3.134-1.085-.362-1.205-.6-2.772,1.567-2.652,1.567,1.085,3.616,1.085,4.1-.482,1.326-4.7-1.929-7.714-4.46-10.968-1.929-2.411-3.978-2.29-6.268-.844-4.7,3.134-10.125,1.687-15.187,2.893-1.808.362-3.013-.844-3.616-2.531-3.013-7.835-10.245-14.343-8.2-23.986a1.239,1.239,0,0,0-.844-1.446,1.156,1.156,0,0,0-1.085.241c-6.75,6.991-5.3-2.411-7.835-3.857-.723-3.978,1.567-3.134,3.737-2.411,1.567-.241,1.808-1.085,1.085-2.411-2.411-1.085-.482-3.254-1.085-4.7-.964-.6-2.531-.844-2.17-2.652-2.531-.844-5.544-.964-7.352-3.5-5.062-6.991-5.062-7.232-.241-12.776,4.821-3.737,10-6.991,14.7-10.968C86.988,100.972,87.35,96.513,91.448,95.669Z" transform="translate(-10.45 -8.799)" fill="#fefefe"/><path d="M53.91,481.451c1.446-10.486-2.652-20.249-3.736-30.374-2.772-25.432-1.567-50.744.723-76.177,1.446-15.91,5.665-31.218,8.678-46.767A43.66,43.66,0,0,0,60.418,315c-.723-7.353-.844-14.826,1.687-22.057,2.17-6.268,1.808-12.656,1.567-19.165-.121-4.46.844-8.8,4.339-11.451,6.991-5.3,7.352-12.9,7.835-20.491.241-3.857,0-7.594.362-11.451.844-11.571,6.268-20.611,15.308-27.481.844,0,.964.723,1.205,1.326-1.567,3.5-4.942,5.545-7.232,8.437a23.475,23.475,0,0,1-4.7,5.062l-.121,2.17c-2.772,8.678-1.205,17.718-2.29,26.638v-.121c-1.085.964-.844,2.29-.723,3.375a11.676,11.676,0,0,1-5.3,11.692c-2.411,1.085-3.616,3.375-4.942,5.424-1.205,3.978-3.254,7.835-1.085,12.053v-.121c2.652,6.629-1.326,12.294-2.411,18.441v-.241c-1.808,6.388-.6,13.018-.723,19.406-.121,5.183.241,10.245-1.446,15.308-3.737,14.464-6.991,29.048-8.2,43.994-2.049,23.624-3.375,47.369-1.205,71.114.844,9.281,3.737,18.321,5.062,27.6.362,2.893,1.326,6.268-3.254,6.991Z" transform="translate(-14.013 18.605)" fill="#d3d3d3"/><path d="M89.1,224.612l-1.205-1.326c3.375-6.027,9.16-10.125,13.018-15.669,3.134-4.339,2.772-7.714-.964-11.571A44.336,44.336,0,0,0,83.553,185.2c-13.982-5.183-16.513-10.848-16.875-25.673a126.759,126.759,0,0,1,3.737-34.352c.482-1.929-.723-3.375-1.929-4.821-5.544-7.473-4.46-11.933,3.736-16.151.964,1.687-.964,2.411-1.205,3.616-4.942,4.1-2.17,8.076,0,12.053,2.531,1.326,3.254,3.375,2.29,6.027L72.1,129.512c-1.567,2.049-1.085,4.339-1.205,6.629v5.3c0,1.808-1.085,2.652-2.17,3.737l-.362,2.411c-1.085,2.411,1.205,3.978,1.326,6.147.121,1.929,1.085,3.737.482,5.665-3.013,12.656-.241,17.839,12.294,22.3,8.919,3.134,16.633,7.714,22.419,15.428,2.29,3.134,2.893,5.665.723,8.678A93.882,93.882,0,0,1,89.1,224.612Z" transform="translate(-10.631 -1.661)" fill="#c4c4c4"/><path d="M53.763,459.581c3.5-3.375,2.531-7.352,1.567-11.21a218.267,218.267,0,0,1-5.3-56.65c1.205-27.481,2.29-55.083,10.727-81.721a1.185,1.185,0,0,1,.362,1.687l-.121.121c-1.808,9.884-3.978,19.647-5.3,29.53-5.062,36.642-7.111,73.4,1.929,109.805,1.808,7.473-3.254,10.969-6.268,15.79C50.268,463.8,53.642,462.112,53.763,459.581Z" transform="translate(-13.746 40.595)" fill="silver"/><path d="M146.893,122.956c-5.665,3.013-5.665,9.4-8.317,14.223-1.205,2.17-1.205,6.147-4.339,5.062-2.652-.964-7.714-1.808-5.665-7.232.482-1.205.6-2.893-1.085-3.616s-1.085-1.808-.482-2.772c2.17-3.616,6.991-4.821,8.317-9.522.482-1.567,3.616.362,5.3,2.049,1.326,1.326,1.446,1.205,2.531-1.687C144.121,120.786,144.965,122.474,146.893,122.956Z" transform="translate(1.964 1.28)" fill="#232323"/><path d="M134.1,23.919c12.9-1.085,25.432-1.326,38.45,2.411,12.776,3.737,23.022,10.486,33.387,17.959,1.929,1.326,4.339,2.049,6.509,3.013-1.929,3.375-3.737,3.5-7.111.964-5.665-4.339-10.968-9.281-17.357-12.9-1.687-2.893-5.424-3.013-7.352-2.772-6.147.844-10.366-3.375-15.669-4.46-4.219-1.687-8.317-1.687-12.9-1.205-5.665.6-11.33-1.326-16.875-2.531A4.281,4.281,0,0,1,134.1,23.919Z" transform="translate(3.548 -18.288)" fill="#e7e7e7"/><path d="M112.975,255.713c-1.567-.241-3.375.6-4.821-.964a10.641,10.641,0,0,1,.241-7.232c2.772-1.205,5.544-.482,8.317-.362,6.87.241,8.437,2.652,5.544,8.919-2.29,4.942-5.183,9.522-7.594,14.343-1.326,2.772-3.013,4.1-6.027,2.652-4.1-1.808-.6-3.857-.121-5.786a11.028,11.028,0,0,1,1.085-2.049,4.051,4.051,0,0,1,1.687-.6c.964-.362,1.205-1.205,1.687-1.928,1.446-3.375,4.942-5.665,5.183-9.643a18.706,18.706,0,0,1-.482,2.531C116.108,257.28,114.541,256.557,112.975,255.713Z" transform="translate(-2.085 27.625)" fill="#e9e9e9"/><path d="M212.537,75.1a26.465,26.465,0,0,1,6.75,22.3c-2.29,15.428-4.7,30.977-11.571,45.2-.964,1.085-.6,4.339-3.616,2.411V142.6a105.884,105.884,0,0,0,10.125-34.231,44.753,44.753,0,0,1,1.326-6.991c2.531-7.835.482-14.946-2.893-21.937C211.935,77.993,211.091,76.667,212.537,75.1Z" transform="translate(17.921 -7.636)" fill="#dcdcdc"/><path d="M212.6,76.763c9.884,22.3,1.205,42.91-5.665,63.641a6.84,6.84,0,0,1-2.772,3.857c4.339-12.415,7.232-25.191,10.245-38.088,3.013-13.138-.964-23.5-7.714-33.749l-2.531-3.978a1.369,1.369,0,0,1-.362-.964c.121-.362.121-.482.241-.482,4.58,1.567,6.027,6.147,8.558,9.763Z" transform="translate(17.859 -9.299)" fill="#c2c2c2"/><path d="M206.587,133.511,210.2,131.1c-3.013,10.125-7.353,19.767-9.522,30.254-1.205,5.906-2.652,11.571-2.652,17.718,0,3.737-.362,7.353-4.821,8.678-.6-.482-1.326-1.205-1.205-1.929,2.652-14.223,3.254-28.807,9.763-42.066a18.274,18.274,0,0,1,4.58-9.281A1.3,1.3,0,0,1,206.587,133.511Z" transform="translate(15.434 3.863)" fill="#ececec"/><path d="M70.119,112.508c-.482-1.567.723-2.531,1.205-3.616a25.173,25.173,0,0,1,2.652-2.411c8.076-4.7,12.9-10.727,9.763-20.732-.482-1.326.362-3.134.723-4.7a.927.927,0,0,1,1.205-.121l.121.121c.6,4.46-.964,9.763,4.821,12.174C86.391,102.5,77.833,107.084,70.119,112.508Z" transform="translate(-9.612 -6.473)" fill="#bcbcbc"/><path d="M203.63,141.211c-4.219,14.584-6.75,29.651-9.643,44.6l-2.411,1.205c-1.808-.723-3.616-1.567-2.411-4.219,2.772-1.205,4.58-2.893,4.339-6.388-1.205-12.535,3.375-23.865,7.955-35.2a2.051,2.051,0,0,1,.844-.121C202.787,140.367,203.148,140.367,203.63,141.211Z" transform="translate(14.775 5.805)" fill="#cbcbcb"/><path d="M75.842,137.512c4.821,2.049,6.268,6.147,6.87,10.848.121.844-.723,1.929-1.326,1.567-3.857-2.17-8.678-3.134-10.366-8.076C70.538,136.789,71.382,136.066,75.842,137.512Z" transform="translate(-9.428 5.044)" fill="#f3f3f3"/><path d="M189.346,182.1l-1.446-6.027c1.687.6,1.687,3.978,3.978,2.772,1.687-.844.844-3.254.723-5.062C192.36,161.973,194.891,151,201.52,141c-2.652,12.415-8.317,24.227-7.232,37.365.121,2.17-.844,5.544-4.7,4.339-.362-.121-.482-.241-.482-.482A.421.421,0,0,1,189.346,182.1Z" transform="translate(14.595 5.895)" fill="#363636"/><path d="M83.326,85.55,82,85.43c.241-3.134,2.17-5.424,3.616-7.955,1.929-3.254,2.772-6.388,1.326-10,2.531-2.049,3.254-5.3,5.3-7.594a2.969,2.969,0,0,1,2.652-.241c1.567,1.205,1.446,2.652.362,4.1C92.366,71.569,88.991,79.162,83.326,85.55Z" transform="translate(-7.149 -10.854)" fill="#c2c2c2"/><path d="M112.472,164.249c-1.205,1.929-.241,3.013,1.567,3.737l-2.652,2.17a3.915,3.915,0,0,1-2.652,1.446c-5.3-.362-.362,3.978-3.254,4.942-2.049-1.567-6.027-2.29-6.87-6.027s6.75-1.687,5.062-6.629c2.29.121,1.808,1.808,2.531,2.652s1.446,2.049,2.893,1.687.844-1.567.964-2.531C110.182,164.49,109.821,162.079,112.472,164.249Z" transform="translate(-3.752 10.49)" fill="#e4e4e4"/><path d="M90.432,58.406a3.755,3.755,0,0,0-.482-3.375c-3.134-4.58-.844-8.076,3.134-9.884A91.673,91.673,0,0,0,103.57,39c-.362,3.5-3.254,4.46-5.786,6.027-2.893,1.808-7.835,3.013-3.375,8.558,2.17,2.772-2.531,4.1-3.737,6.268C89.95,59.491,89.829,59.008,90.432,58.406Z" transform="translate(-5.818 -15.048)" fill="#616161"/><path d="M105.961,249.016a3.5,3.5,0,0,1-.121,5.062h0c-1.085.723-.6,1.687-.121,2.531.241,1.687.482,3.5.6,5.3-.121,6.991-4.1,9.04-10.366,5.424a4.979,4.979,0,0,1,.844-1.326c4.58-3.737,4.58-4.942.241-9.522a5.339,5.339,0,0,1-.121-7.111c1.808-2.411,4.1-1.687,6.388-.723A4.925,4.925,0,0,0,105.961,249.016Z" transform="translate(-4.352 27.814)" fill="#d5d5d5"/><path d="M179.314,33a48.034,48.034,0,0,1,13.379,9.16c3.013,2.772,6.147,5.183,10.607,3.013h0a2.968,2.968,0,0,1,1.085,2.29c-3.375,5.424-3.375,5.424-6.87,1.205l-18.442-14.1C178.47,33.964,178.47,33.362,179.314,33Z" transform="translate(12.695 -16.28)" fill="#c3c3c3"/><path d="M218.9,432.9c3.254-5.665,7.955-10.486,9.522-17a2.375,2.375,0,0,1,2.049,1.567,10.412,10.412,0,0,1-2.17,5.906c-2.652,4.1-4.219,8.919-7.955,12.415Z" transform="translate(20.96 62.339)" fill="#4a4a4a"/><path d="M135.1,24.108c7.111-.482,13.861,2.772,21.093,1.326a11.841,11.841,0,0,1,9.161,2.17c.723.482.6.844-.121,1.326-3.857-1.446-7.714-1.446-11.692-1.205A37.225,37.225,0,0,1,135.1,24.108Z" transform="translate(3.753 -18.116)" fill="#939393"/><path d="M160.1,28.226l.121-1.326c6.147,1.808,12.053,4.7,18.8,4.339,1.929-.121,3.013,1.687,4.219,3.013l-.362,1.567a15.429,15.429,0,0,0-10.968-2.772C167.091,33.529,164.56,28.587,160.1,28.226Z" transform="translate(8.887 -17.532)" fill="#9c9c9c"/><path d="M59.241,317.621,59,315.934c2.29-8.8.964-17.839,1.326-26.758.121-2.772-.362-5.665,1.446-8.076-.723,9.763,1.205,19.526-.241,29.169A51.945,51.945,0,0,1,59.241,317.621Z" transform="translate(-11.872 34.661)" fill="#bcbcbc"/><path d="M82.336,156.2c.844,2.17,4.821.964,4.821,3.978a3.4,3.4,0,0,1-3.616,3.254c-.241,0-.362,0-.482-.121-1.808-.121-3.857-.6-3.134-3.134C80.287,158.972,79.323,156.441,82.336,156.2Z" transform="translate(-7.606 9.016)" fill="#e3e3e3"/><path d="M76.41,139.946c-3.857-1.085-4.942.964-4.821,4.339-.964-1.326-1.567-2.893-3.375-3.616-.362-1.326.6-2.29,1.085-3.375a8.683,8.683,0,0,0,0-6.509c0-2.29-.121-4.46,2.29-5.786C72.191,130.424,69.66,136.692,76.41,139.946Z" transform="translate(-9.996 2.61)" fill="#212121"/><path d="M197.882,203.918c-5.062-5.786-9.763-11.812-11.933-19.406a1.482,1.482,0,0,1-.121-1.567c1.808-.844,2.411.482,3.254,1.687a6.055,6.055,0,0,1,.6,1.567c1.929,6.147,7.111,10.486,9.281,16.513A1.589,1.589,0,0,1,197.882,203.918Z" transform="translate(14.135 14.453)" fill="#c1c1c1"/><path d="M97.816,267.491l-1.567.121c-3.616-4.942-3.5-15.187.241-20.611a2.048,2.048,0,0,1,1.687,1.687,9.515,9.515,0,0,0-.6,7.473c0,3.375.964,6.629.964,9.884A2.379,2.379,0,0,1,97.816,267.491Z" transform="translate(-4.765 27.66)" fill="#bcbcbc"/><path d="M215.068,235.243c.482,4.46,2.652,8.678,2.411,13.259L208.8,223.19a1.79,1.79,0,0,1,1.687-.482A24.386,24.386,0,0,1,215.068,235.243Z" transform="translate(18.886 22.663)" fill="#bebebe"/><path d="M194.2,46.22c2.772,3.616,3.737-2.049,5.906-1.205,3.134,1.687,3.857,4.58,3.978,7.714a3.091,3.091,0,0,1-1.446,2.17,1.493,1.493,0,0,1-1.687-.362c-.362-1.446.121-3.857-2.17-3.375C194.079,52.247,195.044,48.51,194.2,46.22Z" transform="translate(15.888 -13.831)" fill="#696969"/><path d="M90.921,55.1l.362,1.567-.121.482c1.928,1.446.723,3.375.964,5.183-1.687,2.411-2.652,5.424-6.027,6.027C88.27,64.14,87.305,58.837,90.921,55.1Z" transform="translate(-6.307 -11.742)" fill="#7f7f7f"/><path d="M73.249,243.638c-.121-8.919-1.326-17.959,2.29-26.638C74.213,225.919,75.539,234.959,73.249,243.638Z" transform="translate(-9.005 21.5)" fill="#bcbcbc"/><path d="M157.7,458.77c-1.446-.723-4.1-.241-4.1-2.531,0-2.652,2.893-2.049,4.58-2.531a2.22,2.22,0,0,1,2.652,1.687c0,.241.121.482,0,.723C160.832,457.927,159.868,459.011,157.7,458.77Z" transform="translate(7.552 70.093)" fill="#d0d0d0"/><path d="M61.2,284.341c.241-6.268,3.134-12.053,2.411-18.441C68.432,272.77,63.008,278.315,61.2,284.341Z" transform="translate(-11.42 31.54)" fill="#bcbcbc"/><path d="M68.2,254.167c3.737-4.339,4.339-9.884,6.027-15.067-.241,3.737,0,7.473-.723,10.968A5.566,5.566,0,0,1,68.2,254.167Z" transform="translate(-9.983 26.038)" fill="#bcbcbc"/><path d="M224.446,326.977c-1.567-2.17,1.205-5.3-1.446-7.232a9.866,9.866,0,0,0,1.205-5.545c3.013,3.978,1.687,8.558,2.17,12.9C225.772,327.82,225.049,328.061,224.446,326.977Z" transform="translate(21.802 41.458)" fill="#505050"/><path d="M205.185,68.97l-.121,1.446c-2.652-3.737-7.594-6.388-5.906-12.174a1.77,1.77,0,0,1,1.567-.121c1.687,1.205,1.567,3.375,2.531,5.062C203.257,65.234,205.667,66.56,205.185,68.97Z" transform="translate(16.836 -11.149)" fill="#9f9f9f"/><path d="M72.39,123.127,70.1,117.1c2.049,1.326,5.906-.723,6.268,3.5Z" transform="translate(-9.593 0.988)" fill="#a1a1a1"/><path d="M188.4,443.975c1.326-2.411-5.3-1.326-2.049-4.58,2.772-2.652,3.978-.121,5.3,1.808.241.362,1.085.12,1.687.241Z" transform="translate(14.091 66.928)" fill="#494949"/><path d="M97.426,248.588,96.1,247.262c3.857-2.17,7.352-2.531,9.763,2.17l-1.326,1.446A48.88,48.88,0,0,0,97.426,248.588Z" transform="translate(-4.254 27.398)" fill="#dfdfdf"/><path d="M106.737,85.264,103,70.8C107.821,74.778,106.616,80.2,106.737,85.264Z" transform="translate(-2.837 -8.519)" fill="#282828"/><path d="M91.264,62.034,90.3,56.851c2.772.241,7.473-2.29,5.906,4.1-1.205.241-2.531-1.085-3.737,0Z" transform="translate(-5.445 -11.444)" fill="#616161"/><path d="M203.152,212.315,195.8,200.382l.6-.482c5.544,1.567,5.906,6.87,7.835,11.089A2.425,2.425,0,0,1,203.152,212.315Z" transform="translate(16.217 17.989)" fill="#c1c1c1"/><path d="M209.132,221.11c-2.893-3.254-5.906-6.509-7.232-10.848l.482-.362c4.219,2.049,6.388,5.786,7.835,10A2.156,2.156,0,0,1,209.132,221.11Z" transform="translate(17.469 20.042)" fill="#c1c1c1"/><path d="M187.331,184.414l-.362,1.446c-1.446-3.254-7.594-3.013-6.027-8.317.121-.241.241-.6.362-.844C185.162,177.785,187.814,179.834,187.331,184.414Z" transform="translate(13.114 13.225)" fill="#929292"/><path d="M201.346,142.6l-1.446-.121c.362-3.616,1.567-6.75,4.942-8.678Z" transform="translate(17.059 4.417)" fill="#c2c2c2"/><path d="M63.545,268.053c-2.531-4.219-1.446-8.2,1.085-12.053Z" transform="translate(-11.234 29.508)" fill="#bcbcbc"/><path d="M110.426,264.635l-1.326-1.446c.964-2.17,1.567-4.58,3.375-6.388a2.264,2.264,0,0,1,1.929,1.326c.241,1.567-.723,2.652-1.205,3.978C112.6,263.068,112.354,264.755,110.426,264.635Z" transform="translate(-1.585 29.672)" fill="#cbcbcb"/><path d="M94,103c1.808,2.893,1.326,6.027.482,9.281Z" transform="translate(-4.685 -1.907)" fill="#090909"/><path d="M69.772,151.522l-1.446-5.786c-.241-1.326-.362-2.652.964-3.737C70.978,145.134,70.737,148.388,69.772,151.522Z" transform="translate(-9.988 6.101)" fill="#212121"/><path d="M104.945,255.939c-1.446-1.929-3.737-2.531-5.544-4.339l5.665,1.808Z" transform="translate(-3.577 28.604)" fill="#696969"/><path d="M113.226,258.821l-1.326-1.567v-3.134l3.616-.121C116.48,256.531,115.275,257.978,113.226,258.821Z" transform="translate(-1.01 29.097)" fill="#dbdbdb"/><path d="M69.369,142.49c.482,1.446.6,2.772-.964,3.737a5.269,5.269,0,0,1-.482-6.027C68.285,141.044,68.285,142.129,69.369,142.49Z" transform="translate(-10.188 5.731)" fill="#bcbcbc"/><path d="M77.96,128.275c-1.567.362-3.978-.6-3.737,2.411-.844-.844-2.049-1.808-.723-2.893S76.514,127.432,77.96,128.275Z" transform="translate(-9.016 3.071)" fill="#212121"/><path d="M105.4,261.721V256.9C106.726,258.587,106.123,260.034,105.4,261.721Z" transform="translate(-2.345 29.693)" fill="#060606"/><path d="M108.554,71.2l-.362,9.522C106.746,77.468,106.505,74.213,108.554,71.2Z" transform="translate(-2.003 -8.436)" fill="#282828"/><path d="M92.1,60.437c1.205-1.205,2.531-2.411,3.737,0-.723,1.205-1.085,2.772-2.652,3.375Z" transform="translate(-5.075 -10.932)" fill="#9a9a9a"/><path d="M75.2,216.162a11.929,11.929,0,0,1,4.7-5.062C79.419,213.872,77.611,215.2,75.2,216.162Z" transform="translate(-8.545 20.289)" fill="#bcbcbc"/><path d="M75.1,470.379l.964-2.17c.964.12,2.772-.6,2.411,1.085C78.234,470.62,76.305,470.379,75.1,470.379Z" transform="translate(-8.566 73.069)" fill="#939393"/><path d="M178.416,383a15.176,15.176,0,0,1,0,7.352A5.972,5.972,0,0,1,178.416,383Z" transform="translate(12.387 55.584)" fill="#0c0c0c"/><path d="M77.217,122.2c1.687,1.205-.844,3.5,1.085,4.7C75.891,125.816,76.374,124.008,77.217,122.2Z" transform="translate(-8.273 2.035)" fill="#212121"/><path d="M164.431,454l.121,2.411c-1.085,0-2.652.482-2.652-1.085S163.467,454.121,164.431,454Z" transform="translate(9.256 70.162)" fill="#ababab"/><path d="M108.3,247.4l-.241,7.232A6.81,6.81,0,0,1,108.3,247.4Z" transform="translate(-1.989 27.742)" fill="#dbdbdb"/><path d="M210.531,223.942l-1.446.121-1.085-4.7.482-.362C211.013,219.723,210.772,221.772,210.531,223.942Z" transform="translate(18.722 21.911)" fill="#c1c1c1"/><path d="M200.305,59.168H199.1l.964-6.268.482.362a3.921,3.921,0,0,1,.6,5.3Z" transform="translate(16.894 -12.194)" fill="#696969"/><path d="M107,170.546l2.652-1.446c.121.844,1.326,1.687.121,2.411a1.723,1.723,0,0,1-2.411-.362A1.1,1.1,0,0,1,107,170.546Z" transform="translate(-2.016 11.665)" fill="#efefef"/><path d="M188.1,185.1l2.411,2.411c7.714,11.692,15.91,23.142,23.022,35.2a58.053,58.053,0,0,1,7.111,20.25h-1.326l-4.7-12.053-2.17-4.942c-1.446-4.339-4.58-7.473-7.111-10.848a27.259,27.259,0,0,0-7.353-12.053C195.211,196.671,189.788,191.97,188.1,185.1Z" transform="translate(14.636 14.95)" fill="#dcdcdc"/><path d="M202.475,66.122c-1.687-1.205-1.929-3.134-2.17-4.942h0c.6-2.411,1.567-4.7,1.326-7.232l-2.411-8.558L199.1,43.1c5.3,2.772,6.268,7.594,5.786,12.9-.362,3.375-.6,6.629-.964,10C203.439,66.724,202.957,66.724,202.475,66.122Z" transform="translate(16.894 -14.206)" fill="#e7e7e7"/><path d="M201.9,62.221l1.446-.121c2.29,5.786,8.678,9.04,9.643,15.669l-8.317-9.643A12.177,12.177,0,0,1,201.9,62.221Z" transform="translate(17.469 -10.305)" fill="#dcdcdc"/><path d="M224.2,324.8l1.929.121c4.339,9.4,4.942,19.767,7.232,29.651,2.893,13.259,3.978,27,5.062,40.5a175.4,175.4,0,0,0,0,29.772l-1.085,3.857-2.17,2.652h-.723c-1.085,0-1.446-.844-2.049-1.567,2.893-2.049,3.616-4.821,3.737-8.317,1.085-32.3-3.737-63.762-11.812-94.98A8.538,8.538,0,0,0,224.2,324.8Z" transform="translate(22.048 43.634)" fill="#c4c4c4"/><path d="M236.231,412.972a82.385,82.385,0,0,1,0-29.772Z" transform="translate(24.24 55.625)" fill="#a4a4a4"/><path d="M226.8,423.856l1.567-5.906c-.964-1.808.482-2.29,1.567-3.134,1.446-.482,2.411-2.17,4.219-1.808l.362.241Z" transform="translate(22.582 61.735)" fill="#c4c4c4"/><path d="M233.7,413.205l-3.5,2.411c-.482-.362-1.205-.482-1.205-1.205L231.411,412Z" transform="translate(23.034 61.539)" fill="#606060"/><path d="M229.431,414l1.205,1.205-2.29,2.531-1.446-1.567C226.9,414.365,227.864,413.882,229.431,414Z" transform="translate(22.602 61.946)" fill="#323232"/><path d="M69.2,129.9c1.808,2.17,2.049,4.339,0,6.509Z" transform="translate(-9.777 3.616)" fill="#bcbcbc"/><path d="M113.719,259.867a10.164,10.164,0,0,0,2.411-4.821c.121-4.942-4.1-3.013-6.629-4.7a8.871,8.871,0,0,1,9.281-.241c3.013,1.687.6,4.219-.362,6.147-1.205,2.531-2.772,4.821-4.219,7.232-.362.6-.844.6-1.205,0Z" transform="translate(-1.503 28.052)" fill="#3f3f3f"/><path d="M112.985,261.1h1.205c-1.326,2.17-1.446,5.183-4.1,6.629-1.446-1.808.482-2.772.362-4.1Z" transform="translate(-1.492 30.555)" fill="#414141"/><path d="M181.1,175.1c3.5,3.5,7.473,6.75,8.317,12.053l-2.17-2.411-6.027-7.714Z" transform="translate(13.198 12.897)" fill="#dcdcdc"/><path d="M97.182,266.012a2.235,2.235,0,0,1-.241-.844,3.06,3.06,0,0,1,.241-2.29c2.652-2.29,1.567-4.339-.482-6.268a2.459,2.459,0,0,1,1.687-2.411c3.616.241,6.268,1.446,5.786,5.786C103.811,264.2,101.762,266.615,97.182,266.012Z" transform="translate(-4.131 29.138)" fill="#5a5a5a"/><path d="M98.485,255.5l-.964,2.411a.987.987,0,0,1-.482,1.205H96.8c-1.567-.6-1.205-1.808-.844-3.013,0-2.772-.362-5.665,1.567-8.076,2.652-.121,5.544-.844,7.111,2.29C96.918,249.714,96.8,249.714,98.485,255.5Z" transform="translate(-4.349 27.838)" fill="#3f3f3f"/><path d="M96.055,254.8l1.205,2.652c3.013,1.205,2.772,3.5,1.687,5.906l-1.687,1.688A9.855,9.855,0,0,1,96.055,254.8Z" transform="translate(-4.451 29.261)" fill="#606060"/><path d="M201.326,52.1c1.446,2.772.121,5.062-1.326,7.232.121-1.929.121-3.857.241-5.906Z" transform="translate(17.079 -12.358)" fill="#9f9f9f"/><path d="M98.592,263.094c-2.049-1.567-1.687-3.737-1.687-5.906.121-.362.241-.6.362-.964,2.049-.241,4.219-.482,4.46,2.29C101.846,260.8,101.846,263.094,98.592,263.094Z" transform="translate(-4.094 29.526)" fill="#dfdfdf"/></g></g></svg>