<?xml version="1.0" encoding="utf-8"?>
<!-- Generator: Adobe Illustrator 21.1.0, SVG Export Plug-In . SVG Version: 6.00 Build 0)  -->
<svg version="1.1" id="Layer_1" xmlns="http://www.w3.org/2000/svg" xmlns:xlink="http://www.w3.org/1999/xlink" x="0px" y="0px"
	 viewBox="0 0 597.5 105.1" style="enable-background:new 0 0 597.5 105.1;" xml:space="preserve">
<style type="text/css">
	.st0{fill:#CC4224;}
	.st1{fill:#FFFFFF;}
	.st2{enable-background:new    ;}
</style>
<title>Asset 2</title>
<g id="Layer_2">
	<g id="Layer_1-2">
		<polygon class="st0" points="72,80.6 0,80.6 1.1,11.4 72,11.4 		"/>
		<polygon class="st1" points="17.6,2.9 38.3,2.9 31.9,26.9 66.7,18.2 38.3,95.8 38.5,41.4 8.7,48.2 		"/>
		<g class="st2">
			<path d="M143.3,46.5c0,9.3-2.8,19.1-8.4,25.4c-5.5,6-13.4,8.6-21.4,8.6H91.3V11.4l22.4,0.1c8.4,0,16.2,2.9,21.5,8.9
				C141.5,27.4,143.3,36.8,143.3,46.5z M139,46.5c0.2-8.6-1.8-17.6-6.9-23.3c-4.5-5.2-11.2-7.7-18.5-7.7l-17.9,0.1v60.7l17.9,0.2
				c7.4,0,14.3-2.7,19-8.1C137.2,63.1,138.8,53.8,139,46.5z"/>
			<path d="M157.9,15.5v28.5h32.4v4h-32.4v28.5h38.2v4h-42.2V11.5h42.2v4H157.9z"/>
			<path d="M203.3,11.5h4.3l22.9,63.2l23-63.2h4.3l-25.1,69.1h-4.3L203.3,11.5z"/>
			<path d="M269.1,15.5v28.5h32.4v4h-32.4v28.5h38.2v4h-42.2V11.5h42.2v4H269.1z"/>
		</g>
		<g class="st2">
			<path d="M325.8,11.5v65.1h34.4v4h-38.4V11.5H325.8z"/>
		</g>
		<g class="st2">
			<path d="M370.8,71.1c-5.6-7.3-7.2-16.4-7.3-25.1c-0.1-8.6,1.7-17.8,7.3-25.1c5.4-7.3,14.4-11,23.7-10.8
				c9.4,0.2,18.2,3.6,23.8,10.8c5.6,7.3,7.1,16.4,7.2,25.1c0.1,8.6-1.6,17.8-7.2,25.1c-5.4,7.3-13.8,10.9-23.8,10.9
				C384.7,82.1,376.2,78.6,370.8,71.1z M414.8,68.6c4.8-6.1,6.2-14.5,6.3-22.6c0.1-8-1.5-16.3-6.3-22.5c-4.5-6.3-12.4-9.5-20.3-9.4
				c-7.9,0.1-15.8,3.1-20.4,9.4c-4.8,6.1-6.1,14.5-6.2,22.5c-0.1,8.1,1.4,16.4,6.2,22.6c4.6,6.3,12.6,9.5,20.4,9.4
				C402.5,77.9,410.3,75,414.8,68.6z"/>
			<path d="M482.2,32.2c0,5.2-2.1,10.2-5.5,13.9c-3.7,4.2-9.6,6.8-15.3,6.8h-21.4v27.6h-4V11.5h25.4c5.4,0,10.7,2.4,14.2,5.8
				C479.8,21.1,482.2,26.7,482.2,32.2z M477.9,32.2c-0.1-4.5-1.9-8.8-5.1-12c-2.9-2.9-7.2-4.7-11.3-4.7h-21.4v33.4h21.4
				c4.7,0,9.4-2.3,12.5-6C476.5,40,478,36.2,477.9,32.2z"/>
			<path d="M495.8,15.5v28.5h32.4v4h-32.4v28.5H534v4h-42.2V11.5H534v4H495.8z"/>
			<path d="M590.8,80.6l-13.6-28.1c-1.4,0.3-2.8,0.5-4.2,0.5h-21.4v27.6h-4V11.5h25.4c5.4,0,10.7,2.4,14.2,5.8
				c4.1,3.8,6.5,9.4,6.5,15c0,5.2-2.1,10.2-5.5,13.9c-1.9,2.1-4.3,3.8-7,5l14.4,29.5H590.8z M572.9,48.9c4.7,0,9.4-2.3,12.5-6
				c2.5-3,4-6.8,3.9-10.8c-0.1-4.5-1.9-8.8-5.1-12c-2.9-2.9-7.2-4.7-11.3-4.7h-21.4v33.4H572.9z"/>
		</g>
	</g>
</g>
</svg>
