<svg xmlns="http://www.w3.org/2000/svg" xmlns:xlink="http://www.w3.org/1999/xlink" width="859.859" height="652.447" viewBox="0 0 859.859 652.447"><defs><linearGradient id="a" x1="1.473" y1="0.911" x2="1.371" y2="1.358" gradientUnits="objectBoundingBox"><stop offset="0" stop-color="#fea600"/><stop offset="1" stop-color="#ef1829"/></linearGradient><clipPath id="b"><path d="M68.674,165.3C5.088,238.491,51.706,299.185,102.481,311.711c71.928,17.717,95.56-15.315,114.207,99.176,6.353,38.74,28.41,76.654,64.258,94.862,25.827,13.094,57.568,14.8,83.989,2.919,14.7-6.612,27.351-16.994,41.323-25s30.528-13.714,46.127-9.685c15.031,3.9,26.473,16.142,34.841,29.21,20.119,31.431,26.757,70.3,49.794,100,19.4,25.052,50.982,45.843,82.93,48.839,41.814,3.9,80.58-20.662,112.476-44.939a378.182,378.182,0,0,0,93.184-104.47c31.3-51.266,51.4-108.912,62.708-167.875,10.073-52.506,13.275-106.872,3.487-159.456-15.5-83.137-74.459-189.8-174-173.661C597.972,21.08,618.22,147.71,543.993,69.557c-44.5-46.773-145.018-93.339-208.036,26.576S160.231,59.95,68.674,165.3Z" transform="translate(-37.858 0.003)" fill="none"/></clipPath><linearGradient id="c" x1="0.661" y1="0.006" x2="0.518" y2="0.324" xlink:href="#a"/><linearGradient id="d" x1="0.682" y1="-0.034" x2="0.499" y2="0.325" xlink:href="#a"/><linearGradient id="e" x1="1.071" y1="0.187" x2="2.107" y2="-0.468" gradientUnits="objectBoundingBox"><stop offset="0" stop-color="#f70f47"/><stop offset="1" stop-color="#ffb41d"/></linearGradient><linearGradient id="f" x1="1.166" y1="0.914" x2="0.832" y2="-0.82" xlink:href="#e"/><linearGradient id="g" x1="2.971" y1="-1.653" x2="1.931" y2="-0.563" xlink:href="#e"/><linearGradient id="h" x1="1.081" y1="0.813" x2="1.081" y2="-1.373" gradientUnits="objectBoundingBox"><stop offset="0" stop-color="#36078b"/><stop offset="1" stop-color="#16b1ff"/></linearGradient><linearGradient id="i" x1="2.964" y1="-8.297" x2="1.865" y2="-3.532" xlink:href="#e"/><linearGradient id="j" x1="5.851" y1="-3.657" x2="2.939" y2="-0.431" xlink:href="#e"/><linearGradient id="k" x1="1.465" y1="3.625" x2="7.808" y2="-4.355" xlink:href="#e"/><linearGradient id="l" x1="1.668" y1="3.193" x2="6.674" y2="-7.479" xlink:href="#e"/><linearGradient id="m" x1="7.028" y1="-15.131" x2="3.879" y2="-5.457" xlink:href="#e"/><linearGradient id="n" x1="7.232" y1="10.274" x2="8.207" y2="8.817" xlink:href="#h"/><linearGradient id="o" x1="14.927" y1="11.976" x2="16.065" y2="10.729" xlink:href="#h"/><linearGradient id="p" x1="26.131" y1="17.561" x2="27.428" y2="16.509" xlink:href="#h"/><linearGradient id="q" x1="34.772" y1="26.691" x2="36.172" y2="25.695" xlink:href="#h"/><linearGradient id="r" x1="3.075" y1="3.65" x2="4.123" y2="2.287" xlink:href="#h"/><linearGradient id="s" x1="-0.201" y1="0.8" x2="1.159" y2="0.156" gradientUnits="objectBoundingBox"><stop offset="0.48" stop-color="#36078b"/><stop offset="1" stop-color="#16b1ff"/></linearGradient><linearGradient id="t" x1="0.882" y1="3.032" x2="2.239" y2="2.023" xlink:href="#h"/><linearGradient id="u" x1="0.767" y1="0.985" x2="0.119" y2="0.02" xlink:href="#s"/><linearGradient id="v" x1="-0.014" y1="2.467" x2="1.073" y2="1.149" xlink:href="#h"/><linearGradient id="w" x1="-0.131" y1="0.871" x2="1.111" y2="0.117" xlink:href="#s"/><linearGradient id="x" x1="-1.195" y1="2.545" x2="-0.236" y2="1.071" xlink:href="#h"/><linearGradient id="y" x1="-0.063" y1="0.753" x2="1.052" y2="0.219" xlink:href="#s"/><linearGradient id="z" x1="0.218" y1="1.226" x2="0.788" y2="-0.195" xlink:href="#h"/><linearGradient id="aa" x1="0.25" y1="1.857" x2="0.754" y2="-0.548" xlink:href="#h"/><linearGradient id="ab" x1="-0.879" y1="0.914" x2="1.346" y2="0.024" xlink:href="#h"/><linearGradient id="ac" x1="-0.457" y1="0.871" x2="1.424" y2="0.06" xlink:href="#h"/><linearGradient id="ad" x1="-0.875" y1="2.733" x2="-0.875" y2="3.377" gradientUnits="objectBoundingBox"><stop offset="0" stop-color="#2c27ce"/><stop offset="1" stop-color="#ef1d68"/></linearGradient><linearGradient id="ae" x1="-1.062" y1="5.363" x2="-1.062" y2="4.86" xlink:href="#ad"/><linearGradient id="af" x1="0" y1="0.5" x2="1" y2="0.5" xlink:href="#ad"/><linearGradient id="ag" y1="0.5" x2="1" y2="0.5" gradientUnits="objectBoundingBox"><stop offset="0.35" stop-color="#36078b"/><stop offset="1" stop-color="#16b1ff"/></linearGradient><linearGradient id="ah" x1="-0.355" y1="-0.716" x2="0.003" y2="-0.211" xlink:href="#a"/><linearGradient id="ai" x1="-1.423" y1="-1.773" x2="0.569" y2="0.582" xlink:href="#a"/><linearGradient id="aj" x1="0.657" y1="-0.503" x2="0.613" y2="-0.223" xlink:href="#a"/><linearGradient id="ak" x1="-13.98" y1="0.672" x2="-56.65" y2="1.18" xlink:href="#a"/><linearGradient id="al" x1="-13.201" y1="0.663" x2="-55.871" y2="1.17" xlink:href="#a"/><linearGradient id="am" x1="4.02" y1="0.405" x2="-3.024" y2="0.594" xlink:href="#a"/><linearGradient id="an" x1="1.529" y1="0.292" x2="-7.75" y2="2.17" xlink:href="#a"/><linearGradient id="ao" x1="2.548" y1="0.086" x2="-6.731" y2="1.963" xlink:href="#a"/><linearGradient id="ap" x1="-1.233" y1="1.187" x2="-0.296" y2="5.272" xlink:href="#h"/><linearGradient id="aq" x1="-3.543" y1="0.946" x2="-1.206" y2="2.363" xlink:href="#h"/><linearGradient id="ar" x1="-1.195" y1="0.723" x2="-1.195" y2="2.487" xlink:href="#h"/><linearGradient id="as" x1="-0.331" y1="0.375" x2="-0.331" y2="1.274" xlink:href="#h"/><linearGradient id="at" x1="-0.535" y1="0.612" x2="0.029" y2="5.909" gradientUnits="objectBoundingBox"><stop offset="0" stop-color="blue"/><stop offset="1" stop-color="#9e005d"/></linearGradient><linearGradient id="au" x1="2.333" y1="-2.074" x2="3.135" y2="0.182" xlink:href="#at"/><linearGradient id="av" x1="-1.507" y1="0.134" x2="-0.415" y2="2.099" xlink:href="#at"/><linearGradient id="aw" x1="-0.997" y1="-0.912" x2="0.523" y2="1.199" xlink:href="#at"/><linearGradient id="ax" x1="-0.908" y1="0.236" x2="-0.137" y2="2.261" xlink:href="#at"/><linearGradient id="ay" x1="-2.68" y1="21.448" x2="-2.68" y2="26.044" xlink:href="#h"/><linearGradient id="az" x1="-2.829" y1="1.094" x2="-1.612" y2="2.355" xlink:href="#at"/><linearGradient id="ba" x1="-2.045" y1="2.332" x2="-1.038" y2="4.603" xlink:href="#at"/><clipPath id="bb"><path d="M270.87,154.649a21.764,21.764,0,0,0-3.977-1.42c.155-1.446.284-2.893.387-4.21a4.64,4.64,0,0,0,0-1.059,8.368,8.368,0,0,0,3.383-4,15.5,15.5,0,0,0,1.937-3.2,7.412,7.412,0,0,0,1.73-2.015c1.214-2.014,1.395-4.158.413-4.907.8-3.745.93-6.767-.671-8.73a4.048,4.048,0,0,0,0-.568c.284-3.642-5.165-6.2-5.811-7.9,0,0-.336,2.583.7,3.2a46.309,46.309,0,0,1-9.22-4.959s1.085,2.583,2.4,3.228a57.413,57.413,0,0,1-9.711-3.564,29.261,29.261,0,0,0,4.158,4.959,28.409,28.409,0,0,1-9.866-1.627,18.311,18.311,0,0,0,6.044,8.239v.207c-.439,1.472-.749,2.867-1.033,4.184a1.86,1.86,0,0,0-1.653-.646c-1.266.284-1.808,2.583-1.24,4.855a5.888,5.888,0,0,0,2.04,3.487,28.638,28.638,0,0,0,.129,3.538c.31,2.815,1.834,7.025,5.01,7.748a3.464,3.464,0,0,1-.181.7c-.052.232-.129.749-.207,1.111a31.507,31.507,0,0,0-8.781.31,12.5,12.5,0,0,0-8.032,3.745l-1.162,1.989a14.827,14.827,0,0,0-1.937,3.383c-3.822,6.689-6.767,12.268-8.807,15.7-5.165-1.317-21.152-.8-26.059-1.446a2.14,2.14,0,0,0-.413-.31h0a9.5,9.5,0,0,0-.9-.878c-.749-.62-5.165-4.339-5.914-3.564s-.232,1.317.362,2.169c-5.165-1.575-11.648-2.918-11.751-.646-.155,4,6.405,6.483,8.6,7.1a15.186,15.186,0,0,0,8.342.956c1.679,1.679,3.926,3,9.582,4.752a93.446,93.446,0,0,0,20.2,4.546c-3.151,15.5-5.475,29.649-5.475,29.649a226.066,226.066,0,0,0-5.165,23.812h0c-2.918,14.463-7.748,38.74-9.065,44.319a29.184,29.184,0,0,0-.594,3.332,14.516,14.516,0,0,0-.439,3.1c-.387,12.914,1.627,38.121-1.55,62.863a1.757,1.757,0,0,0,.336,1.136,2.58,2.58,0,0,0-.439.516,13.509,13.509,0,0,1-5.63,4.107c-3,1.291-9.375,1.911-5.837,3.047a22,22,0,0,0,9.763,0,43.746,43.746,0,0,1,6.586-.387c3.254,0,3.28-.207,2.841-3.745a5.578,5.578,0,0,0-.62-1.937c1.963-18.389,11.7-49.252,9.039-65.316,4.83-10.77,12.913-33.756,16.323-43.906,0,10.9,3,38.74,4.726,50.776a3.976,3.976,0,0,0,.232.8,17.075,17.075,0,0,0,.826,2.35c4.855,11.235,17.02,38.973,20.842,52.016-.31,1.395-.207,2.04-.387,3.1-.232,1.446-1.627,1.989-2.428,3.177s-2.273,3.2,3.151,3.332,9.22,0,8.239-3.228a27.371,27.371,0,0,1-1.033-4.132,2.582,2.582,0,0,0,.387-.258c.491-.465,0-1.782,0-2.893-1.085-8.342-7.619-46.85-15.5-59.092v-1.111c.155-7.748,3.719-49.691,3.977-55.554a63.821,63.821,0,0,0,.8-14.127,111.056,111.056,0,0,1,3.822-20.662,51.909,51.909,0,0,0,7.412-2.712,2.376,2.376,0,0,0,1.317-1.369h0c1.111-2.273,2.841-7.748,3.435-21.669a68.019,68.019,0,0,0,0-8.006A13.508,13.508,0,0,0,270.87,154.649Z" transform="translate(-182.229 -114.54)" fill="none"/></clipPath><linearGradient id="bc" x1="0.269" y1="0.851" x2="2.036" y2="1.314" xlink:href="#at"/><linearGradient id="bd" x1="24.591" y1="22.253" x2="24.591" y2="23.931" gradientUnits="objectBoundingBox"><stop offset="0" stop-color="#36078b"/><stop offset="1" stop-color="#168d68"/></linearGradient><linearGradient id="be" x1="12.915" y1="21.479" x2="12.915" y2="23.684" xlink:href="#bd"/><linearGradient id="bf" x1="9.422" y1="0.264" x2="9.422" y2="1.943" xlink:href="#bd"/><linearGradient id="bg" x1="10.587" y1="8.019" x2="10.587" y2="0.986" xlink:href="#h"/><linearGradient id="bh" x1="23.402" y1="1.777" x2="23.402" y2="-0.557" xlink:href="#h"/><linearGradient id="bi" x1="17.142" y1="2.399" x2="17.142" y2="0.278" xlink:href="#h"/><linearGradient id="bj" x1="7.305" y1="14.637" x2="7.305" y2="12.185" xlink:href="#h"/><linearGradient id="bk" x1="-30.776" y1="-80.546" x2="-30.776" y2="-86.709" xlink:href="#h"/><linearGradient id="bl" x1="23.686" y1="-5.507" x2="24.332" y2="-6.445" gradientUnits="objectBoundingBox"><stop offset="0" stop-color="#2c27ce"/><stop offset="0.65" stop-color="#ef1d68"/><stop offset="1" stop-color="#efba92"/></linearGradient><linearGradient id="bm" x1="0.303" y1="-0.335" x2="0.879" y2="2.014" xlink:href="#bd"/><linearGradient id="bn" x1="0.401" y1="-0.05" x2="1.048" y2="3.682" xlink:href="#bd"/><linearGradient id="bo" x1="0.552" y1="0.275" x2="-0.042" y2="1.541" xlink:href="#bl"/><clipPath id="bp"><path d="M200.063,156.08c1.136-1.446,1.937-2.893,1.136-3.616s-5.165,3.409-5.785,4.106a7.288,7.288,0,0,0-1.007,1.188,1.834,1.834,0,0,0-1.007,1.266c-6.534.878-20.248,3.1-24.381,4.881a6.355,6.355,0,0,0-1.5.93c-3.693.31-19.138-1.575-33.162-2.583h0a33.579,33.579,0,0,0-7.748-1.291c0-.387,0-.8,0-1.162v-.749c3.332-.181,5.553-4.21,6.3-7a29.956,29.956,0,0,0,.7-3.564,6.044,6.044,0,0,0,2.583-3.2c.956-2.324.749-4.623-.491-5.165a1.911,1.911,0,0,0-1.782.387,34.476,34.476,0,0,0-.387-4.416,6.512,6.512,0,0,0-.207-.775v-.981c3.1-1.188,3.616-6.1,1.033-8.549a12.732,12.732,0,0,0,.387-4.442,9.634,9.634,0,0,0,3.693-5.785c.387-2.324.723-9.246-2.583-11.751s-7.387,14.256-7.748,16.4a1.885,1.885,0,0,0,.542,1.86c-.542,1.24-1.188,2.764-1.885,4.442-3.461.491-13.068,1.24-12.913,4.132-3.125,1.343-3.719,4.881-3.435,9.582-1.085.62-1.266,2.815-.362,5.165a7.567,7.567,0,0,0,1.446,2.3,15.962,15.962,0,0,0,1.111,3.513,8.007,8.007,0,0,0,1.291,2.944c-2.583,3.1-5.914,6.9-9.556,11.338a12.449,12.449,0,0,0-2.169,2.583l-.646.775a7.515,7.515,0,0,0-1.111,3.926,27.841,27.841,0,0,0,1.24,12.913,140.137,140.137,0,0,1,6.147,48.865,65.42,65.42,0,0,0-1.42,14.463c-.672,5.966-3.745,49.071-4.83,56.974v.852h0c-6.069,13.585-5.579,57.052-5.165,65.73a8.549,8.549,0,0,0,.207,2.583,17.3,17.3,0,0,1-1.136,5.579c-1.007,3.228,2.583,3.435,8.471,3.306,5.553,0,4.132-2.066,3.228-3.409s-2.247-1.756-2.583-3.254a22.477,22.477,0,0,0-.362-3.1h0c1.033-12.655,8.781-48.555,11.932-61.416a15.884,15.884,0,0,0,.465-3.383c4.261-14.541,11.054-40.213,11.751-48.245v-1.782h20.4a31.547,31.547,0,0,0,3.358-.284c5.863-.826,12.707-1.472,19.448-2.376-5.966,15.909-10.2,37.862-15.264,51.086a.852.852,0,0,0,.413,1.059,5.579,5.579,0,0,0-.723,2.35c-.284,3.642-.258,4.184,3.1,4.055a48.083,48.083,0,0,1,6.792-.284,22.623,22.623,0,0,0,10-.62c3.564-1.343-3-1.653-6.147-2.841a15.729,15.729,0,0,1-5.579-3.435h0c8.135-23.115,20.662-44.371,26.783-56.819a11.6,11.6,0,0,0,2.118-7,6.3,6.3,0,0,0-1.653-4.494h0a5.315,5.315,0,0,0-.465-.439c-1.911-1.834-5.165-3.048-10.331-2.815-5.656.232-21.178.232-31.664.258v-2.247s-.232-35.46-2.583-56.819h3.952c14.282,0,19.99-1.575,22.366-2.583h0a111.528,111.528,0,0,0,15.5-6.457c6.121-3,8.006-3.073,9.5-4.416a9.659,9.659,0,0,0,6.715,0c2.2-.852,8.29-4.184,8.73-8.265C213.054,153.29,205.59,154.685,200.063,156.08Z" transform="translate(-95.295 -103.551)" fill="none"/></clipPath><linearGradient id="bq" x1="2.641" y1="1.09" x2="4.409" y2="1.553" xlink:href="#at"/><linearGradient id="br" x1="0.889" y1="-0.321" x2="0.439" y2="0.731" xlink:href="#ad"/><linearGradient id="bs" x1="0.322" y1="0.475" x2="0.877" y2="0.655" xlink:href="#h"/><linearGradient id="bt" x1="0.512" y1="0.419" x2="0.592" y2="-1.9" xlink:href="#bl"/><linearGradient id="bu" x1="0.302" y1="0.038" x2="0.645" y2="0.91" xlink:href="#h"/><linearGradient id="bv" x1="0.508" y1="1.858" x2="0.557" y2="9.43" gradientUnits="objectBoundingBox"><stop offset="0" stop-color="#f70f47"/><stop offset="1" stop-color="#9e005d"/></linearGradient><linearGradient id="bw" x1="0.468" y1="-0.271" x2="0.576" y2="2.31" xlink:href="#bv"/><linearGradient id="bx" x1="0.501" y1="0.543" x2="0.582" y2="2.827" xlink:href="#bv"/><linearGradient id="by" x1="0.474" y1="-0.284" x2="0.611" y2="2.179" xlink:href="#bv"/><linearGradient id="bz" x1="0.499" y1="0.543" x2="0.587" y2="2.838" xlink:href="#bv"/><linearGradient id="ca" x1="0.718" y1="0.131" x2="0.44" y2="0.906" xlink:href="#h"/><linearGradient id="cb" x1="0.502" y1="0.379" x2="0.553" y2="-2.748" xlink:href="#bl"/><linearGradient id="cc" x1="3.019" y1="-3.427" x2="2.405" y2="-0.197" xlink:href="#ad"/><linearGradient id="cd" x1="5.856" y1="-6.204" x2="4.544" y2="-0.251" xlink:href="#ad"/><clipPath id="ce"><path d="M148.856,149.349a11.209,11.209,0,0,0-4.726,2.3,16.915,16.915,0,0,0-4.313,2.815,1.111,1.111,0,0,0-.672,0c-2.118.956-16.994,3.952-23.038,5.837h-.155c-2.944-.826-10.9-4.675-21.669-9.453a42.74,42.74,0,0,0-.491-6.689,10,10,0,0,0,1.911-4.778,44.81,44.81,0,0,0-1.085-13.146c.878,1.472.258-4.158-1.575-6.483a11.312,11.312,0,0,0-5.811-3.332,9.452,9.452,0,0,0-4.184-.542,10.563,10.563,0,0,0-7.516,2.376,18.492,18.492,0,0,0-7.18,17.769,42.226,42.226,0,0,1-1.369,18.8A37.273,37.273,0,0,0,65.59,160.3c-.62.956-1.291,1.989-2.066,3.2-6.638,10.615-8.471,15.677-9.039,18.079a2.583,2.583,0,0,0,1.085,2.583l.232.362A53.049,53.049,0,0,0,67.863,196.9a38.512,38.512,0,0,1,5.295,5.527,2.789,2.789,0,0,0,.749,1.808c.542.517,1.6.439,2.738.129l-.181.852c-.207.878-1.911,7.877-1.989,8.652a55.192,55.192,0,0,0-1.111,11.777c-.542,4.881-2.918,39.954-3.771,46.489v.7h0c-4.752,11.08-4.391,46.489-4.132,53.565,0,.362,0,.542.232.62a4.984,4.984,0,0,0,0,1.395,13.817,13.817,0,0,1-.9,4.675c-.8,2.583,1.963,2.97,6.638,2.867s3.254-1.86,2.583-2.944-1.756-1.446-1.963-2.583a22.684,22.684,0,0,0-.31-2.583h0c1.007-9.633,6.9-39.567,9.375-50.053a13.56,13.56,0,0,0,.362-2.763c3.073-10.9,7.748-29.52,9.014-37.5,1.524,8.962,5.165,29.236,7.541,38.74-3.306,13.223,2.918,40.187,3.306,55.735h0v.336c-.362,2.97-.336,3.125,2.3,3.125a33.9,33.9,0,0,1,5.32.31,17.124,17.124,0,0,0,7.748,0c2.867-.956-2.273-1.472-4.7-2.583a10.95,10.95,0,0,1-4.546-3.435,2.091,2.091,0,0,0-.387-.491c-.207-20.662,2.066-41.323,2.583-51.99a13.792,13.792,0,0,0,0-1.885,24.413,24.413,0,0,0,0-3.125c-.362-4.83-1.162-25.491-1.679-37.811A195.959,195.959,0,0,0,106.81,214.1c-.31-6.276-7.464-26.008-2.583-38.74,2.014-5.32,1.214-7.541-.413-10.072a57.571,57.571,0,0,0,11.39,2.583,3.977,3.977,0,0,0,1.911,0,53.124,53.124,0,0,0,16.142-6.121c5.165-2.583,7.18-1.989,8.084-3.409a4.106,4.106,0,0,0,3.487-.7c2.247-2.04,2.247-1.73,1.575-4.675a1.91,1.91,0,0,0-.284-.62l.413-.284C147.152,150.846,150.173,149.219,148.856,149.349Zm-86.34,32.129c1.395-2.2,3.926-5.6,7.1-9.943a13.276,13.276,0,0,0,5.165,1.446A109.585,109.585,0,0,1,77.7,186.462a39.412,39.412,0,0,1,0,11.622c-.62.155-1.266.336-2.015.491h0C72.77,195.14,66.21,186,62.517,181.477Z" transform="translate(-54.445 -115.833)" fill="none"/></clipPath><linearGradient id="cf" x1="3.927" y1="1.023" x2="5.694" y2="1.486" xlink:href="#at"/></defs><g transform="translate(-37.858 0.003)"><g transform="translate(37.859 -0.003)"><path d="M68.674,165.3C5.088,238.491,51.706,299.185,102.481,311.711c71.928,17.717,95.56-15.315,114.207,99.176,6.353,38.74,28.41,76.654,64.258,94.862,25.827,13.094,57.568,14.8,83.989,2.919,14.7-6.612,27.351-16.994,41.323-25s30.528-13.714,46.127-9.685c15.031,3.9,26.473,16.142,34.841,29.21,20.119,31.431,26.757,70.3,49.794,100,19.4,25.052,50.982,45.843,82.93,48.839,41.814,3.9,80.58-20.662,112.476-44.939a378.182,378.182,0,0,0,93.184-104.47c31.3-51.266,51.4-108.912,62.708-167.875,10.073-52.506,13.275-106.872,3.487-159.456-15.5-83.137-74.459-189.8-174-173.661C597.972,21.08,618.22,147.71,543.993,69.557c-44.5-46.773-145.018-93.339-208.036,26.576S160.231,59.95,68.674,165.3Z" transform="translate(-37.858 0.003)" fill="url(#a)"/><g clip-path="url(#b)"><path d="M53.006,186.177c-4.959-89.93,63.818-107.931,108.189-88.2,62.863,27.945,61.339,65.626,140.292-7.748,26.808-24.9,64.567-40.109,101.19-33.007,26.421,5.165,50.673,21.927,63.3,45.714,7.025,13.223,10.331,28.048,16.09,41.891s14.566,27.454,28.41,33.368c13.249,5.708,28.616,3.228,42.2-1.575,32.671-11.6,59.686-36.339,93.494-45.016,28.41-7.309,63.534-4.623,88.664,11.39,32.9,20.972,47.341,61.107,56.819,97.032a351.241,351.241,0,0,1,8.859,129.729c-6.25,55.451-24.329,109.2-49.639,158.939-22.521,44.267-51.137,85.978-88.251,118.985-58.7,52.2-162.71,96.877-226.606,28.41-76.861-82.646,10.124-163.924-88.871-148.841C287.9,536.261,187.616,513.172,209.672,389.28S60.134,315.673,53.006,186.177Z" transform="translate(-14.287 87.804)" fill="url(#c)"/><path d="M35.763,153.565C62,65.289,134.422,71.694,170.322,105.992c50.879,48.581,36.39,84.325,137.684,40.962,34.4-14.721,75.88-16.374,108.783,3.125,23.658,14.024,41.323,38.611,45.171,65.833,2.2,15.135.336,30.579,1.033,45.869s4.571,31.457,15.754,41.891c10.77,10.047,26.421,12.914,41.168,12.914,35.46,0,69.991-14.386,105.529-11.08,29.959,2.789,62.734,17.459,81.407,41.556,24.432,31.535,24.484,75.131,21.333,113.045a359.252,359.252,0,0,1-36.158,127.921c-25.13,51.215-61.081,96.722-102.585,135.85-36.958,34.84-78.876,65.11-126.01,84.093-74.511,30.011-190.061,37.088-227.871-50.9-45.507-105.891,66.272-154.29-34.195-173.919C141.24,571.394,52.68,514.575,116.627,402.951S-1.918,280.763,35.763,153.565Z" transform="translate(-49.37 130.54)" fill="url(#d)"/></g><path d="M149.389,31.072c8.213-3.822,12.449,1.937,12.268,6.818-.258,6.922-3.848,8.161,5.94,12.913,7.232,3.435,9.969,12.139,3.073,17.614-9.659,7.748,2.144,11,5.295,16.039,6.508,10.331-1.395,14.2-14.024,21.462s-23.606,6.069-34.324-1.395c-7.929-5.5-13.094-12.216-9.711-19.37,4.855-10.331,15.677-5.165,10.589-13.843-3.048-5.165-4.623-15.5,7.748-18.079S137.56,36.574,149.389,31.072Z" transform="translate(87.164 47.217)" fill="url(#e)"/><path d="M119.2,26.115c-11.08-.826-13.456,7.619-11.131,13.146,3.306,7.748,7.955,7.748-1.291,17.278-6.818,7.051-6.2,18.26,4.106,21.566,14.411,4.6,2.273,13.559.826,20.662-2.97,14.747,7.748,15.7,25.388,18.6,18.079,2.97,29.727-3.228,38.74-16.426,6.715-9.737,9.763-19.706,2.789-26.447-10-9.685-20.248.852-18.079-11.312,1.265-7.283-1.369-19.706-16.684-17.278S135.114,27.3,119.2,26.115Z" transform="translate(64.119 41.251)" fill="url(#f)"/><path d="M124.346,64.46c-9.014,17.795-11.157,29.391,3.151,28.9s27.712-39.18,16.3-44.887C135.762,44.625,128.634,55.989,124.346,64.46Z" transform="translate(87.671 75.505)" fill="url(#g)"/><path d="M134.127,116.184l32.025-4.236a8.239,8.239,0,0,0,7.18-7.9l1.343-43.906a1.627,1.627,0,0,0-1.86-1.679l-58.989,7.748a1.627,1.627,0,0,0-1.343,2.092l12.733,42.175a8.213,8.213,0,0,0,8.91,5.708Z" transform="translate(80.137 92.507)" fill="url(#h)"/><path d="M120.213,44.286c10.331,1.7,19.215,4.778,13.146,8.575s-29.7-2.583-27.118-7C108.1,42.737,115.28,43.46,120.213,44.286Z" transform="translate(70.058 68.973)" fill="url(#i)"/><path d="M110.831,36.9c3.125,5.992,5.889,8.859,8.575,4.83s-5.32-15.341-9.117-13.327C107.629,29.852,109.359,34.036,110.831,36.9Z" transform="translate(74.584 44.589)" fill="url(#j)"/><path d="M131.209,37.811c-1.627,6.56-1.446,10.537,3.228,9.3s6.173-15.031,1.989-16.013C133.456,30.4,131.984,34.686,131.209,37.811Z" transform="translate(108.417 49.105)" fill="url(#k)"/><path d="M141.121,49.754c3.822-4.442,5.165-7.593,1.162-8.471s-10.692,9.22-7.748,11.622C136.472,54.584,139.288,51.872,141.121,49.754Z" transform="translate(114.001 65.262)" fill="url(#l)"/><path d="M120.861,42.6c-4.106-.8-6.56-.568-5.656,2.3s9.5,3.358,10,.723C125.535,43.767,122.72,42.992,120.861,42.6Z" transform="translate(84.261 66.807)" fill="url(#m)"/><path d="M209.32,68.668c-3.745-5.759,7.748-12.913,20.4-8.394a26.99,26.99,0,0,1-4.52,10.331C222.311,74.169,214.589,76.726,209.32,68.668Z" transform="translate(232.376 93.146)" fill="url(#n)"/><path d="M207.11,71.1c-5.6-3.977,2.376-14.876,15.909-15.29a27.014,27.014,0,0,1-.439,11.209C221.212,71.461,214.858,76.652,207.11,71.1Z" transform="translate(227.148 88.339)" fill="url(#o)"/><path d="M206.294,72.828c-6.147-.956-4.106-12.913,6.663-18.828a24.433,24.433,0,0,1,4.184,9.246C217.864,67.4,214.92,74.171,206.294,72.828Z" transform="translate(223.29 85.474)" fill="url(#p)"/><path d="M206.966,71.261c-5.346,1.653-8.445-8.884-2.014-17.821a21.954,21.954,0,0,1,7.025,5.837C214.146,62.35,214.43,68.962,206.966,71.261Z" transform="translate(220.888 84.588)" fill="url(#q)"/><path d="M206.414,75.953c-17.175-17.666,18.079-50.931,66.04-43.6,0,0,0,21.927-8.859,39.257C255.9,86.413,230.407,100.7,206.414,75.953Z" transform="translate(221.93 49.574)" fill="url(#r)"/><path d="M269.959,33.253a41.556,41.556,0,0,0-14.386,5.863,33.052,33.052,0,0,0-3.254,2.066c-1.033.749-2.169,1.369-3.151,2.221l-2.944,2.583-1.472,1.24-1.343,1.369a104.981,104.981,0,0,0-10.15,11.519l-4.52,6.25-4,6.638c-.672,1.111-1.42,2.169-2.015,3.306l-1.782,3.461-3.59,6.922-6.379,14.334c-1.885,4.907-3.952,9.763-5.682,14.747s-3.487,10-5.527,14.98H199.4l3.977-15.5c1.421-5.165,3.228-10.124,4.83-15.186s3.874-10,5.837-15.16l3.564-7.154,1.782-3.564c.594-1.188,1.369-2.3,2.04-3.435l4.21-6.792,4.8-6.405a88.275,88.275,0,0,1,11.028-11.39l1.472-1.343,1.6-1.188,3.228-2.376c1.059-.8,2.273-1.395,3.409-2.092a31,31,0,0,1,3.513-1.911,38.973,38.973,0,0,1,15.29-4.416Z" transform="translate(217.813 51.984)" fill="url(#s)"/><path d="M229.362,79.736c18.725.981,20.093-35.874-8.161-59.686,0,0-12.6,10.925-18.079,24.768C198.551,56.647,203.148,78.367,229.362,79.736Z" transform="translate(221.245 31.741)" fill="url(#t)"/><path d="M223.663,22.09a104.41,104.41,0,0,1,3.022,16.245c.258,2.738.465,5.5.542,8.265s.207,5.527.181,8.29A205.105,205.105,0,0,1,224.1,87.845c-.568,2.583-1.24,5.4-1.834,8.084l-.749,4.029-1.136,3.977-2.273,7.955c-.852,2.583-1.808,5.165-2.763,7.748l-1.421,3.874-1.6,3.8-3.28,7.567c-1.111,2.583-2.583,4.907-3.771,7.335s-2.583,4.855-3.926,7.232h-.258c2.169-5.01,4.494-9.969,6.534-15.031l2.918-7.748,1.446-3.848,1.24-3.9,2.583-7.748,2.118-7.9,1.059-3.952.878-4c.568-2.583,1.162-5.32,1.7-8.006a228.593,228.593,0,0,0,3.771-32.516,155.122,155.122,0,0,0-1.756-32.645Z" transform="translate(220.488 34.97)" fill="url(#u)"/><path d="M223.391,79.5c-25.827-22.831,19.758-73.013,87.5-67.9,0,0,2.583,30.579-8.187,55.735C293.614,88.8,259.6,111.346,223.391,79.5Z" transform="translate(244.185 17.797)" fill="url(#v)"/><path d="M324.536,13.687a186.27,186.27,0,0,0-20.378,14.05c-3.228,2.583-6.534,4.985-9.608,7.748l-4.6,3.977-4.546,4.261-4.468,4.21L276.627,52.3l-4.313,4.339c-1.446,1.446-2.738,3.048-4.106,4.546-2.583,3.1-5.63,5.94-8.135,9.169l-7.748,9.5c-2.583,3.228-4.881,6.56-7.335,9.84-1.188,1.653-2.583,3.254-3.616,4.959l-3.358,5.165c-2.247,3.409-4.6,6.793-6.767,10.331s-4.132,7.077-6.276,10.589l-3.2,5.165-2.841,5.475-5.708,10.976c-3.874,7.309-6.973,14.98-10.873,22.392l-.439-.155,4.468-11.622,2.247-5.811c.749-1.937,1.472-3.9,2.376-5.759l5.165-11.312,2.583-5.656,2.97-5.475,5.966-10.951c2.118-3.564,4.416-7.051,6.612-10.563l3.332-5.165c1.136-1.73,2.428-3.383,3.616-5.165,2.583-3.357,4.83-6.767,7.335-10.073a265.767,265.767,0,0,1,34.35-36.158A187.45,187.45,0,0,1,324.252,13.17Z" transform="translate(221.785 20.852)" fill="url(#w)"/><path d="M222.024,71.527C209.7,49.91,252.551,26.278,297.671,45.571c0,0-5.424,21.462-18.6,36.158C267.815,94.126,239.3,101.874,222.024,71.527Z" transform="translate(250.227 60.844)" fill="url(#x)"/><path d="M318.079,41.992a102.587,102.587,0,0,0-17.252,4.494l-4.21,1.42-4.132,1.627c-2.763,1.033-5.424,2.324-8.11,3.564a180.965,180.965,0,0,0-30.321,18.079l-7.1,5.165c-2.4,1.7-4.546,3.771-6.818,5.63a75.323,75.323,0,0,0-6.638,5.863c-2.04,2.118-4.261,4.106-6.457,6.1s-4.21,4.158-6.276,6.328l-6.147,6.483c-4.055,4.365-7.748,9.014-11.958,13.4l-.258-.181c3.642-4.778,7.18-9.608,10.873-14.308l5.889-6.793c1.963-2.247,3.874-4.6,6.043-6.663,4.236-4.261,8.342-8.626,12.913-12.474,2.3-1.937,4.416-4.081,6.844-5.837l7.18-5.475A167.642,167.642,0,0,1,283.393,50.7a111.417,111.417,0,0,1,34.686-9.065Z" transform="translate(222.561 65.896)" fill="url(#y)"/><path d="M232.506,31.248a30.373,30.373,0,0,1,8.755-.568A48.013,48.013,0,0,1,249.784,32a44.939,44.939,0,0,1,8.161,2.97,25.466,25.466,0,0,1,7.232,5.165l-.129.284a86.984,86.984,0,0,0-16.013-5.346,163.385,163.385,0,0,0-16.555-3.409Z" transform="translate(270.169 48.411)" fill="url(#z)"/><path d="M237.31,26.381a22.522,22.522,0,0,1,7.18-1.808,35.358,35.358,0,0,1,7.206,0,33.576,33.576,0,0,1,7.077,1.627,19.294,19.294,0,0,1,6.482,3.693v.284a72.313,72.313,0,0,0-13.817-2.583,136.286,136.286,0,0,0-14.05-.93Z" transform="translate(277.813 38.608)" fill="url(#aa)"/><path d="M227,37.5a38.433,38.433,0,0,1,0-9.169c.155-1.369.284-2.583.336-4a20.9,20.9,0,0,0-.232-4.442l.207-.207a11.338,11.338,0,0,1,2.583,8.884,30.555,30.555,0,0,1-2.583,9.039Z" transform="translate(261.058 31.156)" fill="url(#ab)"/><path d="M233.88,29.288a27.4,27.4,0,0,1,1.7-6.9c.387-1.007.723-1.989,1.033-2.944a12.553,12.553,0,0,0,.672-3.358h.181a8.652,8.652,0,0,1,0,7.1,26.061,26.061,0,0,1-3.513,6.328Z" transform="translate(272.384 25.474)" fill="url(#ac)"/><path d="M224.066,105.747l-25.827-11.7a2.789,2.789,0,0,1-1.5-3.383l10-31.535a2.789,2.789,0,0,1,3.8-1.679l32.929,14.928a2.789,2.789,0,0,1,1.24,3.977l-17.123,28.41A2.789,2.789,0,0,1,224.066,105.747Z" transform="translate(213.395 90.546)" fill="url(#ad)"/><path d="M239.938,82.531,200.32,64.452a1.834,1.834,0,0,1-1.007-2.169l1.524-5.449a1.834,1.834,0,0,1,2.583-1.188l41.168,18.673a1.834,1.834,0,0,1,.775,2.583l-3.073,4.726a1.834,1.834,0,0,1-2.35.9Z" transform="translate(217.565 87.781)" fill="url(#ae)"/><path d="M480.093,42.46V327.641L103.2,324.31V67.77Z" transform="translate(65.557 67.21)" opacity="0.3" fill="url(#af)"/><path d="M459.953,48.77v258.4H98.22V71.7Z" transform="translate(57.676 77.197)" fill="url(#ag)"/><path d="M134.74,180.759,211.7,179V73.19L134.74,77.064Z" transform="translate(115.476 115.846)" fill="#46cccc" opacity="0.4"/><path d="M194,160.245l-89.749,2.944V67.423L194,62.18Z" transform="translate(67.219 98.421)" fill="#7bcaff" opacity="0.6"/><path d="M166.861,99.431c0,16.891-12.733,30.992-28.41,31.664s-27.841-12.474-27.841-29.107,12.449-30.812,27.919-31.664S166.861,82.463,166.861,99.431Z" transform="translate(77.285 111.248)" fill="#3a7bd8"/><path d="M155.832,95.287a24.768,24.768,0,0,1-8.755,18.879,22.081,22.081,0,0,1-5.165,3.254,21.247,21.247,0,0,1-2.583.956l-1.6.413a19.32,19.32,0,0,1-3.306.413,19.758,19.758,0,0,1-6.328-.775,21.669,21.669,0,0,1-14.876-21.281,25.053,25.053,0,0,1,2.118-10.073A23.968,23.968,0,0,1,122.67,77.6a22.39,22.39,0,0,1,2.3-1.575,21,21,0,0,1,5.553-2.3,19.938,19.938,0,0,1,23.89,13.146,23.632,23.632,0,0,1,1.421,8.42Z" transform="translate(81.393 115.702)" fill="#eff4f4"/><path d="M123,95.3a2.583,2.583,0,0,1-2.583-2.583V77.943a2.583,2.583,0,1,1,5.165,0V92.69A2.583,2.583,0,0,1,123,95.3Z" transform="translate(92.811 119.28)" fill="#a9c3ea"/><path d="M123.055,89.448a2.583,2.583,0,0,1-1.524-4.726l7.1-5.165a2.617,2.617,0,1,1,3.073,4.236l-7.1,5.165A2.583,2.583,0,0,1,123.055,89.448Z" transform="translate(92.759 125.131)" fill="#a9c3ea"/><path d="M453.975,298.727,94.98,300.2V67.653L453.975,43.66Z" transform="translate(52.548 69.109)" fill="#7bcaff" opacity="0.5"/><path d="M171.835,110.727a23.916,23.916,0,0,1-27.4-5.036,26.033,26.033,0,0,1-6.792-12.913l12.268-3.358a12.19,12.19,0,0,0,17.2,9.039Z" transform="translate(120.065 141.533)" fill="url(#ah)"/><path d="M179.316,123.134l-.62.646-8.73-9.53a14.515,14.515,0,0,0,4.055-10.1,12.552,12.552,0,0,0-12.913-12.913A13.4,13.4,0,0,0,149.666,99.3l-11.286-5.45a28.411,28.411,0,0,1,4.907-7.438,24.51,24.51,0,0,1,36.158-1.653A28.2,28.2,0,0,1,179.316,123.134Z" transform="translate(121.237 122.799)" fill="#edf4fc"/><path d="M149.991,95.313a14.232,14.232,0,0,0,.284,2.867l-12.268,3.358a28.8,28.8,0,0,1,2.015-17.717l11.286,5.45A14.49,14.49,0,0,0,149.991,95.313Z" transform="translate(119.724 132.67)" fill="#baf4d5"/><path d="M161.819,101.31a26.369,26.369,0,0,1-8.032,5.682L149.06,94.621a13.327,13.327,0,0,0,4-2.841Z" transform="translate(138.14 145.268)" fill="#d1d9fe"/><path d="M159.34,101.92V99.26l-5.01.181v2.634Z" transform="translate(146.481 157.107)" fill="#a6edc8"/><path d="M162.806,101.81V99.15l-5.036.155v2.66Z" transform="translate(151.925 156.933)" fill="#a6edc8"/><path d="M166.292,101.69V99.03l-5.062.181v2.66Z" transform="translate(157.401 156.743)" fill="#a6edc8"/><path d="M165.607,81.157a4.52,4.52,0,0,0-4.907,1.291,5.166,5.166,0,0,0-1.24,2.428l2.221.413a2.583,2.583,0,0,1,2.247-1.989,2.117,2.117,0,0,1,.852.129Z" transform="translate(154.6 128.049)" fill="#edf4fc"/><path d="M166.846,81.42h0l-1.55,1.808a2.35,2.35,0,0,1,.723,1.73,2.583,2.583,0,0,1-2.3,2.583,2.169,2.169,0,0,1-2.04-1.24l-2.04,1.136a4.391,4.391,0,0,0,7.309.956,4.985,4.985,0,0,0-.1-6.973Z" transform="translate(154.885 128.872)" fill="#ffc550"/><path d="M161.727,83.4a2.59,2.59,0,0,1,0-.517l-2.221-.413a4.933,4.933,0,0,0,.362,3.125l2.04-1.136a2.4,2.4,0,0,1-.181-1.059Z" transform="translate(154.502 130.534)" fill="#ffc550"/><path d="M163.783,81.918a4.235,4.235,0,0,0-1.42-.878l-.852,2.247a2.118,2.118,0,0,1,.723.439Z" transform="translate(157.844 128.27)" fill="#baf4d5"/><path d="M159.56,95.463a4.365,4.365,0,0,0,4.184,2.738,4.494,4.494,0,0,0,2.583-.852l-1.24-1.963a2.2,2.2,0,0,1-2.867-.232,2.3,2.3,0,0,1-.491-.723Z" transform="translate(154.758 149.463)" fill="#baf4d5"/><path d="M159.42,97.092v.155l2.273-.155a2.583,2.583,0,0,1,.671-1.808,2.221,2.221,0,0,1,3.228,0,2.583,2.583,0,0,1,.542,2.583l2.144.7a5.011,5.011,0,0,0,.387-1.73,4.494,4.494,0,0,0-4.571-4.623A4.907,4.907,0,0,0,159.42,97.092Z" transform="translate(154.537 145.949)" fill="#d1d9fe"/><path d="M162.047,95.256l-.387.336,1.24,1.963a4.985,4.985,0,0,0,1.86-2.583l-2.221-.672A2.582,2.582,0,0,1,162.047,95.256Z" transform="translate(158.082 149.257)" fill="#edf4fc"/><path d="M159.42,94.239a4.777,4.777,0,0,0,.362,1.73l2.092-1.007a2.582,2.582,0,0,1-.181-.852Z" transform="translate(154.537 148.956)" fill="#ffc550"/><path d="M162.355,94.442a5.165,5.165,0,0,0,2.893-4.52,4.752,4.752,0,0,0-.723-2.583l-1.911,1.369a2.583,2.583,0,0,1-.31,3.022,2.376,2.376,0,0,1-.723.542Z" transform="translate(157.955 138.241)" fill="#d1d9fe"/><path d="M163.936,96.159h.155V93.783a2.144,2.144,0,0,1-1.7-.646,2.583,2.583,0,0,1,0-3.409,2.273,2.273,0,0,1,2.35-.672l.723-2.3a4.211,4.211,0,0,0-1.472-.207,4.933,4.933,0,0,0-4.546,4.985,4.468,4.468,0,0,0,4.494,4.623Z" transform="translate(154.567 136.989)" fill="#baf4d5"/><path d="M162.348,89.471a2.3,2.3,0,0,1,.31.387l1.911-1.369a4.313,4.313,0,0,0-2.376-1.86l-.723,2.3a2.144,2.144,0,0,1,.878.542Z" transform="translate(157.781 137.117)" fill="#ffc550"/><path d="M161.288,91.868a4.467,4.467,0,0,0,1.653-.439l-.9-2.169a2.221,2.221,0,0,1-.827.232Z" transform="translate(157.37 141.28)" fill="#edf4fc"/><path d="M459.968,71.608,98.21,94.568V60.606L459.968,34.34Z" transform="translate(57.66 54.358)" fill="#d3d3d3"/><path d="M448.883,53.474,100.58,76.2V64.992l348.3-23.812Z" transform="translate(61.411 65.184)" fill="#f2f2f2"/><path d="M105.9,52.367l-5.32.387V46.917l5.32-.387Z" transform="translate(61.411 73.651)" fill="#f9f4ea"/><path d="M109.622,52.133l-5.372.362V46.657l5.372-.387Z" transform="translate(67.219 73.24)" fill="#f9f4ea"/><path d="M113.338,51.873l-5.4.362V46.372l5.4-.362Z" transform="translate(73.059 72.828)" fill="#f9f4ea"/><path d="M160.3,261.212l177.147-1.679V54.57L160.3,65.211Z" transform="translate(155.929 86.376)" fill="#7bcaff" opacity="0.5"/><path d="M172.311,103.975a4.6,4.6,0,0,1-3.2-1.266,4.907,4.907,0,0,1-1.5-3.59V72.26a5.165,5.165,0,0,1,4.8-5.165L330.423,58a4.933,4.933,0,0,1,5.165,4.985V90.855a5.45,5.45,0,0,1-5.165,5.4L172.414,104Zm158.4-43.7h-.155L172.569,69.367a2.867,2.867,0,0,0-2.583,2.893V99.094a2.582,2.582,0,0,0,.775,1.885,2.3,2.3,0,0,0,1.679.62l158.009-7.748a3.073,3.073,0,0,0,2.893-3.048V62.885a2.557,2.557,0,0,0-2.609-2.609Z" transform="translate(167.499 91.801)" fill="#bbceff"/><path d="M172.346,120.519a4.623,4.623,0,0,1-3.228-1.317,4.933,4.933,0,0,1-1.5-3.59V88.777a5.165,5.165,0,0,1,4.83-5.165l158.009-7.257a4.933,4.933,0,0,1,3.693,1.369,4.985,4.985,0,0,1,1.55,3.642V109.31a5.4,5.4,0,0,1-5.165,5.346l-158.009,5.837Zm158.319-41.84h-.129L172.527,85.937a2.815,2.815,0,0,0-2.583,2.841v26.834a2.582,2.582,0,0,0,.775,1.885,2.376,2.376,0,0,0,1.679.646l158.009-5.837a3.022,3.022,0,0,0,2.867-3V81.339a2.6,2.6,0,0,0-2.609-2.66Z" transform="translate(167.515 120.843)" fill="#bbceff"/><path d="M172.388,137.067a4.675,4.675,0,0,1-3.281-1.344,4.984,4.984,0,0,1-1.5-3.615V105.274a5.165,5.165,0,0,1,4.83-5.165l158.009-5.4a5.073,5.073,0,0,1,5.243,5.088V127.77a5.32,5.32,0,0,1-5.165,5.295l-158.009,4ZM330.63,97.087h0l-158.009,5.4a2.738,2.738,0,0,0-2.583,2.789v26.834a2.471,2.471,0,0,0,2.479,2.583l158.009-4a2.944,2.944,0,0,0,2.841-2.944V99.773a2.646,2.646,0,0,0-2.738-2.686Z" transform="translate(167.499 149.905)" fill="#bbceff"/><path d="M172.44,153.619a4.726,4.726,0,0,1-3.332-1.369,5.165,5.165,0,0,1-1.5-3.616v-26.86a5.165,5.165,0,0,1,4.855-5.165l158.009-3.538a5.072,5.072,0,0,1,5.191,5.114v28.022a5.165,5.165,0,0,1-5.165,5.165l-158.009,2.144Zm0-2.376h0L330.449,149.1a2.893,2.893,0,0,0,2.841-2.893V118.236a2.738,2.738,0,0,0-.826-1.989,2.944,2.944,0,0,0-1.963-.775l-158.009,3.564a2.583,2.583,0,0,0-2.583,2.763v26.834a2.583,2.583,0,0,0,.8,1.937,2.2,2.2,0,0,0,1.756.671Z" transform="translate(167.499 178.964)" fill="#bbceff"/><path d="M198.8,106.891l68.338-2.066V99.35L198.8,101.519Z" transform="translate(216.863 157.249)" fill="#7bcaff" opacity="0.5"/><path d="M207.35,109.887l46.256-1.291V103.12l-46.256,1.343Z" transform="translate(230.395 163.216)" fill="#7bcaff" opacity="0.5"/><path d="M200.9,109.434l11.338-.31V103.7l-11.338.336Z" transform="translate(220.187 164.134)" fill="#7bcaff" opacity="0.5"/><path d="M198.8,72.313l68.338-3.642v-5.5L198.8,66.915Z" transform="translate(216.863 99.987)" fill="#7bcaff" opacity="0.5"/><path d="M209.41,74.507l40.936-2.092V66.94L209.41,69.084Z" transform="translate(233.656 105.954)" fill="#7bcaff" opacity="0.5"/><path d="M190.96,75.447,233.29,73.3V67.88L190.96,70.1Z" transform="translate(204.455 107.442)" fill="#7bcaff" opacity="0.5"/><path d="M214.58,123.652l27.583-.517V117.66l-27.583.542Z" transform="translate(241.838 186.229)" fill="#7bcaff" opacity="0.5"/><path d="M202.11,123.85l27.144-.491V117.91l-27.144.542Z" transform="translate(222.102 186.624)" fill="#7bcaff" opacity="0.5"/><path d="M207.35,127.654l46.256-.749V121.43l-46.256.826Z" transform="translate(230.395 192.195)" fill="#7bcaff" opacity="0.5"/><path d="M188.09,127.9l44.422-.7V121.78l-44.422.775Z" transform="translate(199.913 192.749)" fill="#7bcaff" opacity="0.5"/><path d="M174.9,116.128l158.6-6.147a4.21,4.21,0,0,0,4.029-4.184V77.749A3.8,3.8,0,0,0,333.506,74L174.851,81.546a4,4,0,0,0-3.719,4.055v26.783a3.616,3.616,0,0,0,3.771,3.745Z" transform="translate(173.069 117.124)" fill="#f6f3ff"/><g transform="translate(433.742 197.326)" opacity="0.6"><path d="M205.8,83.58l68.261-3.073V76.4L205.8,79.551Z" transform="translate(-205.8 -76.4)" fill="#7bcaff"/><path d="M205.8,86.271l68.261-2.97V79.22L205.8,82.242Z" transform="translate(-205.8 -71.937)" fill="#7bcaff"/><path d="M220.4,87.4l30.553-1.266V82.03L220.4,83.347Z" transform="translate(-182.693 -67.489)" fill="#7bcaff"/></g><path d="M183.48,97.416l17.692-.723V78.33l-17.692.826Z" transform="translate(192.616 123.981)" fill="url(#ai)"/><path d="M175.57,97.683l17.536-.723V78.7l-17.536.8Z" transform="translate(180.097 124.567)" fill="#7bcaff" opacity="0.6"/><path d="M112.376,151.383,362.9,219.644a6.328,6.328,0,0,0,7.748-4.442l11.545-42.356a6.3,6.3,0,0,0-4.442-7.748L127.227,96.837a6.3,6.3,0,0,0-7.748,4.442l-11.545,42.356a6.328,6.328,0,0,0,4.442,7.748Z" transform="translate(72.704 152.918)" fill="url(#aj)"/><g transform="translate(327.857 296.512)" opacity="0.6"><rect width="6.431" height="109.377" transform="translate(5.73 6.204) rotate(-74.75)" fill="url(#ak)"/><rect width="6.396" height="108.785" transform="translate(0 18.687) rotate(-74.846)" fill="url(#al)"/><rect width="6.431" height="48.503" transform="translate(58.483 44.245) rotate(-74.75)" fill="url(#am)"/></g><rect width="29.572" height="29.572" transform="translate(235.519 300.004) rotate(-74.75)" opacity="0.6" fill="url(#an)"/><rect width="29.572" height="29.572" transform="translate(202.307 290.956) rotate(-74.75)" opacity="0.6" fill="url(#ao)"/><ellipse cx="44.5" cy="2.996" rx="44.5" ry="2.996" transform="translate(381.262 542.969)" fill="#d8d8d8"/><path d="M205.678,158.235c2.893,1.472,5.63.956,13.249.491,11-.646,13.585-1.524,20.145-4.313,4.287-1.834-1.007-10.951-7.232-10.1-5.165.723-22.5,9.53-25.827,9.943C204.025,154.542,203.328,157.047,205.678,158.235Z" transform="translate(225.404 228.326)" fill="url(#ap)"/><path d="M224.983,173.381c1.111-2.273,2.841-7.748,3.435-21.669a89.027,89.027,0,0,0-.336-14.747,5.656,5.656,0,0,0-7.077-5.424c-3.538,1.782-7.1,6.586-7.025,9.039.465,13.843,1.679,24.432,1.188,27.816C214.471,173.329,223.666,176.093,224.983,173.381Z" transform="translate(240.888 207.911)" fill="url(#aq)"/><path d="M216.791,209.033a21.133,21.133,0,0,0-.491,3.616c-.232,1.446-1.627,1.989-2.428,3.177s-2.273,3.2,3.151,3.332,9.22,0,8.239-3.228a16.065,16.065,0,0,1-1.111-5.579,3.409,3.409,0,0,0-.646-2.712C222.834,206.967,217.643,205.856,216.791,209.033Z" transform="translate(239.446 327.454)" fill="#4e11f4"/><path d="M199.255,209.667a13.507,13.507,0,0,1-5.63,4.106c-3,1.291-9.375,1.911-5.837,3.048a22.006,22.006,0,0,0,9.763,0,43.738,43.738,0,0,1,6.586-.387c3.254,0,3.28-.207,2.841-3.745C206.383,207.936,200.727,206.9,199.255,209.667Z" transform="translate(197.787 329.454)" fill="#4e11f4"/><path d="M230.294,134.892c-1.679,6.405-2.092,7.748-5.346,10.021a15.5,15.5,0,0,1-10.821,1.421c-3.332-.517-4.881-4.881-5.165-7.748a40.547,40.547,0,0,1,1.756-15.5,10.641,10.641,0,0,1,10.77-6.483C226.032,117.407,234.375,119.241,230.294,134.892Z" transform="translate(232.736 184.493)" fill="#ffaf84"/><path d="M204.859,166.286c2.169-1.317,6.56-5.01,14.541-16.426a88.849,88.849,0,0,0,7.748-12.6c2.118-4.158-.62-8.135-3.048-8.368-3.926-.387-9.53,1.73-10.77,3.848-7.051,11.906-11.725,21.514-13.947,24.1C196.026,160.578,202.276,167.835,204.859,166.286Z" transform="translate(216.254 203.927)" fill="url(#ar)"/><path d="M222.885,130.94c-.181,2.273-.413,4.907-.723,7.283a6.276,6.276,0,0,1-6.405,5.449h-.362c-2.815-.439-5.708-3.512-5.01-6.276.439-1.808.8-3.642,1.059-5.165a7.387,7.387,0,0,1,5.863-6.173h0a4.649,4.649,0,0,1,5.579,4.881Z" transform="translate(235.031 199.369)" fill="#ffaf84"/><path d="M250.734,156.479a136.545,136.545,0,0,0-13.3,46.075l-39.283-6.173s6.018-36.752,11.8-56.484a15.263,15.263,0,0,1,10.1-10.331,28.566,28.566,0,0,1,10.821-.672l7.257,1.136a27.869,27.869,0,0,1,7.516,2.169C255.873,137.289,255.305,147.026,250.734,156.479Z" transform="translate(215.835 203.635)" fill="url(#as)"/><path d="M236.672,185.056s4.7-7.748,3.926-23.993l-39.283-6.173A226.046,226.046,0,0,0,196.15,178.7Z" transform="translate(212.669 245.152)" fill="url(#at)"/><path d="M207.139,195.467c-5.165-12.242,7.361-16.684,12.913-8.135,8.006,12.087,14.592,50.853,15.677,59.247.129,1.111.568,2.4,0,2.893a8.5,8.5,0,0,1-4.029,1.369c-1.472.207-2.893.439-3.358-1.343C225.5,237.384,212.279,207.322,207.139,195.467Z" transform="translate(228.127 289.494)" fill="url(#au)"/><path d="M204.222,179.89c1.111-16.09,9.349-27.454,18.363-20.662a13.585,13.585,0,0,1,4.52,11.751c0,4.236-3.822,47.935-4,55.915-.362,18.079-13.508,11.054-14.257,5.94C207.012,220.077,203.628,188.8,204.222,179.89Z" transform="translate(225.336 248.846)" fill="url(#av)"/><path d="M198.584,255.31c1.911-18.854,12.371-51.344,8.884-67.15-2.221-10.021-13.921-11.131-14.282.93-.387,12.913,1.627,38.121-1.55,62.863C191.326,254.354,198.325,257.505,198.584,255.31Z" transform="translate(205.509 285.438)" fill="url(#aw)"/><path d="M205.394,230.93c-2.3,4.623-16.478,8.161-12.294-9.323,1.86-7.748,10.331-50.879,11.286-55.037s2.583-10.124,4.881-10.563c11.08-2.169,19.293,11.906,14.076,27.17C219.883,193.4,210.172,221.322,205.394,230.93Z" transform="translate(206.628 246.568)" fill="url(#ax)"/><ellipse cx="2.324" cy="4.442" rx="2.324" ry="4.442" transform="translate(438.434 311.745) rotate(-13.29)" fill="#ffaf84"/><ellipse cx="4.464" cy="2.336" rx="4.464" ry="2.336" transform="matrix(0.517, -0.856, 0.856, 0.517, 461.508, 320.054)" fill="#ffaf84"/><path d="M188.61,141.366c2.015,2.583,3.642,4.055,10.951,6.328a91.894,91.894,0,0,0,20.662,4.571c4.649.362,4.055-10.77-1.963-12.6-5.165-1.55-24.432-.775-27.506-1.73C188.662,137.311,186.983,139.3,188.61,141.366Z" transform="translate(199.703 218.129)" fill="url(#ay)"/><path d="M200.485,140.376c-1.885-.981-18.079-6.586-18.311-2.97s6.405,6.483,8.6,7.1c4.261,1.214,7.748,2.066,9.556.207C201.6,143.424,202.4,141.306,200.485,140.376Z" transform="translate(190.539 215.579)" fill="#ffaf84"/><path d="M192.673,139.719c-.749-.62-5.165-4.339-5.914-3.564-1.162,1.188,1.627,3.771,3.461,5.475.981.93,2.944,1.524,3.616.62S193.861,140.726,192.673,139.719Z" transform="translate(197.37 215.333)" fill="#ffaf84"/><path d="M215.608,117.931c-4.132,1.679-5.32,3.538-5.94,8.213s0,12.913,8.42,16.039,11.648-5.165,13.094-10.847,1.782-10.331-2.376-11.958C222.607,116.665,218.088,116.9,215.608,117.931Z" transform="translate(233.785 185.519)" fill="url(#az)"/><path d="M234.581,124.545c.284-3.642-5.165-6.2-5.811-7.9,0,0-.336,2.583.7,3.2a46.307,46.307,0,0,1-9.22-4.959s1.085,2.583,2.4,3.228a57.413,57.413,0,0,1-9.711-3.564,29.261,29.261,0,0,0,4.158,4.959,28.409,28.409,0,0,1-9.866-1.627s2.944,8.265,8.626,9.272S234.038,131.208,234.581,124.545Z" transform="translate(230.205 181.306)" fill="url(#ba)"/><g transform="translate(372.865 295.831)" clip-path="url(#bb)"><path d="M293.574,117.471c-29.83-5.01-72.315,14.954-80.787,46.153-8.755,31.845,15.186,47.083-4.442,91.169-15.5,34.866,2.3,73.116,6.508,103.308,4.623,33.136-11.958,49.071-6.508,78.721,12.6,68.028,11.777,88.07,58.55,102.481,48.012,14.8,57.878-52.145,89.051-105.09,23.012-39.076,36.158-79.5,20.378-108.189-22.6-41.323-55.631.594-44.061-49.071,6.922-29.753,5.811-81.174-37.191-73.426S336.551,124.547,293.574,117.471Z" transform="translate(-150.749 -111.117)" opacity="0.3" fill="url(#bc)"/></g><ellipse cx="72.471" cy="3.073" rx="72.471" ry="3.073" transform="translate(140.993 544.312)" fill="#d8d8d8"/><path d="M107.972,120.178c.465-2.118,4.881-18.647,7.748-16.4s2.944,9.427,2.583,11.751a8.781,8.781,0,0,1-6.844,7.361C109.677,123.045,107.559,122.193,107.972,120.178Z" transform="translate(73.027 163.927)" fill="#ffaf84"/><path d="M119.3,110.951c1.369,3,.129,3.538-.646,11.958a84.893,84.893,0,0,1-3.8,21.126c-1.575,4.442-10.822-1.085-9.943-7.464.749-5.4,8.265-23.244,9.711-26.163a2.583,2.583,0,0,1,4.675.542Z" transform="translate(68.18 172.767)" fill="url(#bd)"/><path d="M127.711,123.506c-.491,2.583-2.454,8.11-10.537,19.913a91.6,91.6,0,0,1-9.349,11.906c-3.228,3.538-8.032,2.35-9.143,0-1.808-3.642-1.782-9.788-.207-11.751,8.91-11.08,16.426-19.06,18.079-22.108C119.033,117.153,128.279,120.536,127.711,123.506Z" transform="translate(56.233 189.009)" fill="url(#be)"/><path d="M104.075,209.507a21.7,21.7,0,0,1,.517,3.693c.232,1.5,1.653,2.04,2.583,3.254s2.324,3.306-3.228,3.409c-5.94,0-9.479,0-8.471-3.306a16.555,16.555,0,0,0,1.136-5.734,3.487,3.487,0,0,1,.672-2.789C97.851,207.415,103.2,206.279,104.075,209.507Z" transform="translate(53.06 328.142)" fill="#541968"/><path d="M126.608,183.462a13.844,13.844,0,0,0,5.992,3.926c3.151,1.188,9.711,1.472,6.147,2.841a22.625,22.625,0,0,1-10,.62,48.06,48.06,0,0,0-6.792.284c-3.332.129-3.358-.413-3.1-4.055C119.221,181.939,124.955,180.725,126.608,183.462Z" transform="translate(90.188 288.121)" fill="#541968"/><path d="M101.835,130c.672,6.767.878,8.239,3.822,11a15.883,15.883,0,0,0,10.77,3.177c3.461,0,5.734-4.184,6.508-7.025a41.634,41.634,0,0,0,.671-15.909,10.925,10.925,0,0,0-9.892-8.29C108.963,113.079,100.182,113.492,101.835,130Z" transform="translate(63.074 178.774)" fill="#ffaf84"/><path d="M103.27,126.854c-.181,2.35-.362,5.165-.439,7.49a6.457,6.457,0,0,0,5.63,6.534h.362c2.918,0,6.353-2.583,6.1-5.553-.155-1.911-.232-3.822-.232-5.5a7.593,7.593,0,0,0-5.165-7.128h0a4.778,4.778,0,0,0-6.25,4.158Z" transform="translate(64.971 193.823)" fill="#ffaf84"/><path d="M98.755,150.489a140.137,140.137,0,0,1,6.147,48.865h40.832s-.232-38.224-2.97-59.17a15.677,15.677,0,0,0-8.626-12.01,29.314,29.314,0,0,0-10.873-2.4h-7.541a28.563,28.563,0,0,0-7.955.981C96.663,130.163,95.6,140.158,98.755,150.489Z" transform="translate(56.081 199.061)" fill="url(#bf)"/><path d="M101.247,179.225s-3.538-8.575-.181-24.975h40.858v24.975Z" transform="translate(59.891 244.14)" fill="url(#bg)"/><path d="M115.613,191.892c3.28-13.3-10.331-15.625-14.592-6.018-6.069,13.585-5.579,57.052-5.165,65.73,0,1.136-.155,2.583.413,2.918a8.73,8.73,0,0,0,4.313.7c1.524,0,3.022,0,3.177-1.911C104.714,240.654,112.462,204.754,115.613,191.892Z" transform="translate(53.583 284.908)" fill="url(#bh)"/><path d="M124.622,180.039c1.446-16.5-5.165-29.339-15.341-23.89a13.947,13.947,0,0,0-6.457,11.209c-.594,4.313-3.745,49.226-4.855,57.362-2.583,18.286,11.932,13.353,13.507,8.29C115.4,220.2,123.847,189.027,124.622,180.039Z" transform="translate(56.791 245.133)" fill="url(#bi)"/><path d="M118.943,225.492c6.947-18.079,12.319-52.79,22.779-65.652,6.637-8.161,17.9-3.8,12.681,7.438-5.579,12.035-19.06,34.221-27.557,58.395C125.994,228.048,118.168,227.609,118.943,225.492Z" transform="translate(90.389 246.324)" fill="url(#bj)"/><path d="M168.917,172.291c5.165-1.42,10.8-18.079-7.748-17.252-8.187.336-37.01.155-41.323.336s-10.718.7-11.6,2.841c-4.339,10.744,8.239,21.772,24.639,19.5C143.943,176.216,158.328,175.261,168.917,172.291Z" transform="translate(72.181 245.34)" fill="url(#bk)"/><ellipse cx="4.571" cy="2.402" rx="4.571" ry="2.402" transform="translate(183.197 311.62) rotate(-67.77)" fill="#ffaf84"/><ellipse cx="2.402" cy="4.571" rx="2.402" ry="4.571" transform="translate(161.167 304.925) rotate(-22.23)" fill="#ffaf84"/><path d="M102.732,118.8c2.583,3.926,15.341,4.287,19.5,2.841s3.874-9.479-2.066-10.021c-3.332,0-.93.8-3.642,1.885C115.129,114.074,99.917,114.616,102.732,118.8Z" transform="translate(64.269 176.669)" fill="url(#bl)"/><path d="M134.658,126.437c2.04-.723,18.466-5.5,18.079-1.808-.439,4.081-6.534,7.412-8.73,8.265a8.807,8.807,0,0,1-9.84-2.014C133.083,129.355,132.618,127.108,134.658,126.437Z" transform="translate(113.104 195.066)" fill="#ffaf84"/><path d="M134.853,126.652c.723-.7,4.959-4.855,5.785-4.106,1.266,1.136-1.369,3.977-3.1,5.889-.956,1.033-2.893,1.782-3.642.9S133.717,127.788,134.853,126.652Z" transform="translate(113.606 193.818)" fill="#ffaf84"/><path d="M156.016,129.072c-1.86,2.712-2.97,1.937-10.563,5.656a84.788,84.788,0,0,1-20.042,7.748c-4.623.956-4.675-9.814,1.214-12.371,4.985-2.169,24.1-4.959,27.4-5.165a2.583,2.583,0,0,1,1.989,4.132Z" transform="translate(95.413 197.751)" fill="url(#bm)"/><path d="M151.334,139.1c-2.376,1.059-8.084,2.583-22.366,2.583a67.568,67.568,0,0,1-12.449-.568,9.53,9.53,0,0,1-7.929-7.748c0-4.158,2.247-7.257,4.752-7.077,14.179,1.033,29.8,2.944,33.291,2.583C151.721,128.335,154.175,137.865,151.334,139.1Z" transform="translate(74.088 199.883)" fill="url(#bn)"/><path d="M119.136,115.079c3.926,2.376,4.83,4.442,4.726,9.272s-2.169,13.094-11.08,14.954-11-7-11.545-13.094-.181-10.667,4.313-11.751C112.214,112.806,116.786,113.633,119.136,115.079Z" transform="translate(62.147 179.718)" fill="url(#bo)"/><g transform="translate(148.34 267.45)" clip-path="url(#bp)"><path d="M129.577,102.351c29.83-5.01,72.316,14.954,80.787,46.153,8.755,31.845-15.186,47.083,4.442,91.169,15.5,34.866-2.3,73.116-6.508,103.308-4.623,33.136,11.958,49.071,6.483,78.721-12.6,68.028-11.777,88.07-58.55,102.482-47.961,14.825-57.827-52.2-89-105.064-23.012-39.076-36.158-79.5-20.377-108.189,22.6-41.323,55.631.594,44.061-49.071-6.922-29.753-5.811-81.174,37.191-73.426S86.575,109.557,129.577,102.351Z" transform="translate(-182.896 -106.668)" opacity="0.3" fill="url(#bq)"/></g><path d="M68.833,118.278a18.492,18.492,0,0,0-7.18,17.769,42.227,42.227,0,0,1-1.369,18.8c-1.369,4.261-6.121,18.57,10.692,18.234s17.872-20.016,15.935-30.114,1.6-17.2-.93-20.248S77.562,111.9,68.833,118.278Z" transform="translate(-5.01 183.338)" fill="url(#br)"/><path d="M87.6,133.195c3.151-2.583,6.3-5.165,6.947-2.376s.672,2.583-1.575,4.675S84.94,135.338,87.6,133.195Z" transform="translate(39.782 205.147)" fill="#ffaf84"/><path d="M122.248,133.631c-2.118.956-16.994,3.951-23.038,5.837h-.155c-3-.826-11.286-4.856-22.444-9.788a14.1,14.1,0,0,0-9.943.594c-1.989,1.007-2.583,4.416.956,6.25a90.214,90.214,0,0,0,11.984,5.165,79.137,79.137,0,0,0,18.337,5.165,3.979,3.979,0,0,0,1.911,0A53.127,53.127,0,0,0,116,140.733c5.165-2.764,7.361-1.911,8.187-3.564S123.85,132.908,122.248,133.631Z" transform="translate(5.212 204.246)" fill="url(#bs)"/><ellipse cx="37.837" cy="2.867" rx="37.837" ry="2.867" transform="translate(42.463 516.419)" fill="#d8d8d8"/><path d="M65.289,198.789a18.079,18.079,0,0,1,.387,3.022c.181,1.214,1.317,1.653,1.963,2.583s1.834,2.867-2.583,2.944-7.438-.232-6.638-2.867a13.818,13.818,0,0,0,.9-4.675,2.944,2.944,0,0,1,.542-2.273C60.356,197.032,64.54,196.154,65.289,198.789Z" transform="translate(-5.521 311.767)" fill="url(#bt)"/><path d="M64.727,124.77c0,.336-.594,7.748-.7,13.43,0,2.789,1.963,5.424,3.977,5.5h0a4.959,4.959,0,0,0,4.106-5.165,95.343,95.343,0,0,1,0-10.1Z" transform="translate(3.563 197.482)" fill="#ed9169"/><path d="M64.783,150.4a96.851,96.851,0,0,1,3.564,15.5,39.516,39.516,0,0,1,0,11.7c-.31,2.324-.775,4.649-1.317,6.947-.207.878-1.911,7.877-1.989,8.652h32c-.31-6.276-7.464-26.008-2.583-38.74,3.358-8.833-1.111-9.117-4.132-16.478a21.59,21.59,0,0,0-2.583-5.346,9.22,9.22,0,0,0-4.907-3,18.086,18.086,0,0,0-2.97-.413c-5.424-.439-18.079-2.015-19.4,5.708a13.637,13.637,0,0,0,.646,6.25c.723,2.247,1.782,4.365,2.583,6.56A11.093,11.093,0,0,1,64.783,150.4Z" transform="translate(-2.252 203.848)" fill="url(#bu)"/><path d="M62.977,174.1s-2.763-6.973-.129-20.352H94.9A195.98,195.98,0,0,1,96.061,174.1Z" transform="translate(-0.11 243.348)" fill="url(#bv)"/><path d="M74.274,184.412c2.583-10.822-8.084-12.733-11.441-4.907-4.752,11.08-4.391,46.489-4.132,53.565,0,.93.517.749,1.033.568a7.75,7.75,0,0,1,3.383-.646,2.97,2.97,0,0,1,1.782,1.446C65.906,224.831,71.795,194.9,74.274,184.412Z" transform="translate(-5.08 276.557)" fill="url(#bw)"/><path d="M81.4,174.744c1.136-13.456-4-23.89-12.061-19.448a11.441,11.441,0,0,0-5.165,9.143c-.465,3.513-2.944,40.109-3.822,46.721-1.963,14.9,9.375,10.9,10.615,6.767C74.167,207.493,80.779,182,81.4,174.744Z" transform="translate(-2.622 244.152)" fill="url(#bx)"/><path d="M83.4,182.937c.413-10.1-9.039-9.892-11.416-1.653-3.745,12.914,2.738,40.678,3.125,56.509,1.653-2.738,3.2-3.409,3.952-3.332a2.582,2.582,0,0,1,1.834,1.033C80.659,214.6,82.958,193.733,83.4,182.937Z" transform="translate(14.311 277.334)" fill="url(#by)"/><path d="M76.744,217.253c1.266,4.132,12.087,8.885,10.976-6.121-.491-6.663-1.834-43.389-2.092-46.928s-.852-8.73-2.583-9.375c-8.549-3.228-16.865,7.335-14.618,20.662C69.926,184.349,74.136,208.7,76.744,217.253Z" transform="translate(9.935 244.129)" fill="url(#bz)"/><path d="M89.277,131.238a11.6,11.6,0,0,1,4.907-2.428c1.395,0-1.627,1.5-2.583,2.454S88.011,132.219,89.277,131.238Z" transform="translate(42.987 203.876)" fill="#ffaf84"/><path d="M64.24,148.755c3.9-.775,5.914-2.092,7.748-1.111s-.852,4.442-2.169,4.985-6.018,3-7.387,1.679a3.487,3.487,0,0,1,1.808-5.553Z" transform="translate(-0.185 233.131)" fill="#ffaf84"/><path d="M62.564,159.941c2.221-3.461,7.18-9.969,13.275-18.415a14.1,14.1,0,0,0,1.472-9.866c-.568-2.169-3.771-3.512-6.3-.336a89.441,89.441,0,0,0-7.516,10.667c-6.638,10.615-8.471,15.677-9.039,18.079a2.583,2.583,0,0,0,1.085,2.583l.232.362a53.048,53.048,0,0,0,12.061,12.371c4.649,3.745,4.675,5.992,6.56,6.1s3.616-1.937,2.324-3.125S66.851,165.055,62.564,159.941Z" transform="translate(-11.655 204.873)" fill="url(#ca)"/><path d="M63.039,133.878c1.627,6.147,2.04,7.49,5.165,9.608a14.9,14.9,0,0,0,10.176,2.169c3.2-.517,5.01-4.261,5.32-7.025a45.972,45.972,0,0,0-1.86-16.09,10.331,10.331,0,0,0-10.331-6.2C67.068,117.039,59.062,118.872,63.039,133.878Z" transform="translate(0.292 184.086)" fill="#ffaf84"/><path d="M78.7,199.288a10.95,10.95,0,0,0,4.546,3.435c2.428,1.085,7.567,1.6,4.7,2.583a17.123,17.123,0,0,1-7.748,0,33.909,33.909,0,0,0-5.32-.31c-2.583,0-2.583-.181-2.3-3.125C72.963,197.919,77.535,196.989,78.7,199.288Z" transform="translate(16.893 313.463)" fill="url(#cb)"/><path d="M81.883,120.19c3.125,3.771-13.43,14.308-17.459,14.282s-4.365-7.748-1.937-12.035S74.522,111.253,81.883,120.19Z" transform="translate(-1.299 183.337)" fill="url(#cc)"/><path d="M66.717,119.856c1.214,3.435,7.541,3.254,9.065,5.992.956,1.7.336-4.081-1.55-6.431S64.289,112.961,66.717,119.856Z" transform="translate(7.1 183.671)" fill="url(#cd)"/><ellipse cx="2.247" cy="4.287" rx="2.247" ry="4.287" transform="translate(60.545 314.691) rotate(-22.22)" fill="#ffaf84"/><g transform="translate(42.837 299.17)" clip-path="url(#ce)"><path d="M89.643,76.241c29.83-5.01,72.315,14.954,80.787,46.153,8.755,31.845-15.186,47.083,4.442,91.169,15.5,34.866-2.3,73.116-6.508,103.308-4.623,33.136,11.958,49.071,6.508,78.721-12.6,68.028-11.777,88.07-58.55,102.481-48.012,14.8-57.878-52.145-89.051-105.09C4.259,353.907-8.887,313.487,6.893,284.794c22.6-41.323,55.631.594,44.061-49.071-7.025-29.753-5.785-81.2,37.217-73.452S46.692,83.421,89.643,76.241Z" transform="translate(-140.637 -179.712)" opacity="0.3" fill="url(#cf)"/></g></g></g></svg>